<?xml version="1.0" encoding="utf-8"?>
<!-- Generator: Adobe Illustrator 16.0.0, SVG Export Plug-In . SVG Version: 6.00 Build 0)  -->
<!DOCTYPE svg PUBLIC "-//W3C//DTD SVG 1.1//EN" "http://www.w3.org/Graphics/SVG/1.1/DTD/svg11.dtd">
<svg version="1.1" id="Layer_1" xmlns="http://www.w3.org/2000/svg" xmlns:xlink="http://www.w3.org/1999/xlink" x="0px" y="0px"
	 width="236.221px" height="46.479px" top="200px" viewBox="0 0 236.221 46.479" enable-background="new 0 0 236.221 46.479"
	 xml:space="preserve">
<g>
	<g>
		<path fill="none" d="M16.372,11.946c0.858,0.438,2.013,0.681,2.444,1.372c0.276,0.444-0.598,1.529-0.788,2.366
			c-0.086,0.376,0.273,1.222,0.37,1.212c1.588-0.148,3.167-0.4,4.748-0.629c-0.558-0.72-1.13-1.431-1.669-2.166
			c-0.143-0.196-0.203-0.462-0.272-0.703c-1.128-3.911-2.136-7.86-3.466-11.699c-0.28-0.807-1.678-1.508-2.667-1.689
			c-0.593-0.109-1.693,0.727-2.036,1.404c-1.01,1.994-1.697,4.148-2.62,6.19c-1.157,2.56-2.399,5.082-3.665,7.589
			c-0.222,0.44-0.742,0.73-1.125,1.09c0.502,0.29,0.979,0.752,1.514,0.833c0.912,0.138,1.863,0.071,2.793,0.015
			c0.276-0.015,0.768-0.288,0.765-0.435c-0.009-0.433-0.137-0.913-0.369-1.282c-0.176-0.28-0.582-0.419-0.886-0.618
			c0.369-0.429,0.661-1.089,1.122-1.239C12.38,12.957,14.249,12.519,16.372,11.946z M120.082,13.059
			c-0.002-5.262-1.874-6.563-5.628-6.322c-3.038,0.195-6.127-0.627-9.205-0.793c-1.014-0.054-2.064,0.529-3.086,0.858
			c-0.027,0.008,0.044,0.464,0.138,0.682c0.534,1.219,1.383,2.387,1.557,3.649c0.184,1.335-0.204,2.769-0.481,4.133
			c-0.092,0.45-0.613,0.815-0.939,1.217c1.588,0.032,3.175,0.071,4.763,0.059c0.044,0,0.169-0.589,0.111-0.875
			c-0.357-1.747-1.089-3.504-1.001-5.223c0.047-0.885,1.534-1.693,2.371-2.535c0.662,0.703,1.795,1.353,1.885,2.121
			c0.168,1.459-0.219,2.994-0.482,4.478c-0.051,0.286-0.597,0.483-0.914,0.722c0.244,0.315,0.505,0.912,0.727,0.898
			c1.428-0.088,2.848-0.311,4.27-0.489c-0.036-0.261-0.035-0.532-0.11-0.781c-0.428-1.398-1.459-2.942-1.145-4.14
			c0.298-1.129,2.005-1.889,3.093-2.809c0.597,1.002,1.545,1.954,1.698,3.019c0.184,1.292-0.261,2.689-0.538,4.019
			c-0.067,0.312-0.673,0.488-0.806,0.818c-0.061,0.15,0.441,0.767,0.654,0.75c1.451-0.123,2.896-0.355,4.342-0.555
			c-0.046-0.26-0.032-0.552-0.148-0.777C120.66,14.107,120.079,13.053,120.082,13.059z M54.553,5.68
			c0.288-1.067,0.576-2.135,0.863-3.203c-1.266-0.539-2.531-1.078-3.797-1.618c0.236,0.752,0.665,1.502,0.677,2.258
			c0.061,4.009,0.063,8.02-0.043,12.028c-0.015,0.543-0.758,1.068-1.163,1.6c1.326,0.074,2.655,0.223,3.978,0.178
			c0.43-0.016,0.91-0.484,1.214-0.866c0.079-0.099-0.554-0.628-0.627-1.004c-0.333-1.717-0.669-3.446-0.794-5.185
			c-0.025-0.368,0.81-1.108,1.285-1.141c1.307-0.088,2.631,0.108,3.948,0.193c-0.288,1.883-0.568,3.767-0.869,5.646
			c-0.036,0.228-0.315,0.574-0.256,0.629c0.323,0.307,0.697,0.724,1.089,0.764c1.018,0.105,2.065,0.11,3.083,0.004
			c0.511-0.055,0.985-0.438,1.478-0.671c-0.184-0.38-0.359-0.762-0.552-1.135c-0.382-0.741-0.684-1.545-1.179-2.203
			c-1.365-1.812-2.617-3.787-4.308-5.246C57.643,5.897,55.921,5.992,54.553,5.68z M47.958,12.021c0.45-0.259,0.9-0.518,1.35-0.777
			c-0.833-1.8-1.356-3.885-2.637-5.277c-0.597-0.65-2.906-0.383-3.996,0.24c-1.237,0.708-1.978,2.279-2.933,3.475
			c1.155-0.561,2.292-1.159,3.469-1.667c0.887-0.383,1.824-0.647,2.738-0.968c0.259,0.821,0.874,1.759,0.655,2.424
			c-0.155,0.474-1.608,0.382-2.177,0.886c-1.792,1.585-3.44,3.33-5.145,5.014c1.56,0.525,3.093,1.156,4.687,1.541
			c1.048,0.254,2.201,0.291,3.276,0.164c1.026-0.122,2.026-0.551,2.998-0.939c0.101-0.041,0.066-0.814-0.125-1.109
			C49.451,13.992,48.687,13.018,47.958,12.021z M193.607,11.998c0.456-0.264,0.911-0.528,1.366-0.79
			c-0.869-1.811-1.429-3.916-2.75-5.295c-0.607-0.635-2.936-0.236-4.072,0.408c-1.178,0.672-1.854,2.212-2.752,3.37
			c1.131-0.547,2.242-1.136,3.395-1.631c0.913-0.394,1.875-0.675,2.814-1.005c0.256,0.824,0.87,1.769,0.645,2.429
			c-0.164,0.478-1.622,0.373-2.191,0.877c-1.788,1.585-3.428,3.335-5.126,5.021c1.562,0.521,3.101,1.144,4.696,1.525
			c1.048,0.252,2.198,0.298,3.272,0.171c1.027-0.124,2.025-0.562,2.996-0.954c0.096-0.037,0.046-0.808-0.145-1.106
			C195.089,13.98,194.33,13,193.607,11.998z M212.688,13.062c-0.177-4.417,0.379-8.137-4.326-7.431
			c-1.695,0.257-3.145,2.19-4.671,3.402c-0.091,0.07,0.138,0.54,0.218,0.821c0.875-0.468,1.733-0.977,2.631-1.398
			c1.107-0.518,2.25-0.962,3.375-1.438c0.271,0.816,0.964,2.164,0.729,2.35c-0.765,0.61-2.097,0.55-2.796,1.195
			c-1.626,1.506-3.011,3.272-4.492,4.932c1.521,0.485,3.016,1.074,4.568,1.42c1.087,0.243,2.266,0.305,3.37,0.172
			c1.022-0.126,2.01-0.591,2.979-0.993c0.08-0.033-0.003-0.796-0.198-1.096C213.416,13.99,212.671,13.037,212.688,13.062z
			 M132.481,10.356c0.11-0.72,0.219-1.44,0.33-2.16c-1.442-1.16-3.392-3.576-4.229-3.239c-2.229,0.896-4.649,2.637-5.706,4.698
			c-0.834,1.619-0.453,5.475,0.652,6.097c1.795,1.007,4.638,0.294,7.01,0.036c0.521-0.058,0.918-1.248,1.372-1.917
			c-1.471,0.409-2.943,0.818-4.415,1.224c-0.092,0.024-0.201,0.05-0.285,0.021c-1.075-0.361-2.149-0.731-3.223-1.099
			c0.778-0.619,1.468-1.478,2.355-1.812C128.338,11.452,130.43,10.957,132.481,10.356z M87.263,9.957
			c-1.94-2.487-2.705-4.425-3.937-4.79c-1.347-0.397-3.964,0.18-4.548,1.185c-1.357,2.343-2.224,5.167-2.428,7.861
			c-0.065,0.876,2.557,2.771,3.912,2.739c1.783-0.047,3.536-1.526,5.272-2.444c0.095-0.051-0.075-0.602-0.123-0.92
			c-1.141,0.39-2.257,0.928-3.431,1.132c-1.273,0.223-2.605,0.211-3.895,0.109c-0.205-0.017-0.547-1.494-0.457-1.539
			c1.089-0.528,2.238-0.943,3.392-1.332C82.705,11.392,84.403,10.87,87.263,9.957z M168.952,13.29c0-1.95-0.285-2.88,0.058-3.317
			c0.79-1.007,1.886-1.775,2.856-2.64c0.786,1.028,1.977,1.963,2.252,3.114c0.315,1.321-0.128,2.843-0.369,4.257
			c-0.048,0.282-0.679,0.466-1.04,0.691c0.219,0.315,0.438,0.901,0.662,0.903c1.356,0.013,2.716-0.09,4.068-0.229
			c0.081-0.009,0.205-0.708,0.121-1.034c-0.387-1.476-0.689-3.002-1.311-4.379c-0.639-1.416-1.321-3.354-2.504-3.863
			c-2.005-0.862-4.409-0.887-6.661-1.033c-0.674-0.044-1.398,0.685-2.1,1.061c0.312,0.357,0.626,0.716,0.939,1.073
			c0.264,0.303,0.771,0.619,0.752,0.9c-0.14,2.15-0.353,4.295-0.626,6.431c-0.033,0.27-0.543,0.478-0.832,0.715
			c0.373,0.401,0.774,1.167,1.109,1.139c1.276-0.108,2.535-0.464,3.786-0.772c0.054-0.013,0.076-0.515-0.023-0.727
			C169.567,14.473,169,13.387,168.952,13.29z M166.917,10.996c-3.854-2.546-5.703-4.693-7.783-4.942
			c-3.886-0.466-6.169,2.116-6.275,6.003c-0.106,3.915,2.817,5.576,5.933,4.884C161.133,16.418,163.042,13.948,166.917,10.996z
			 M33.749,17.581c1.973-0.463,2.51-0.425,2.744-0.674c0.795-0.842,1.484-1.787,2.211-2.689c-0.84,0.251-1.668,0.565-2.526,0.729
			c-0.45,0.085-1.371-0.124-1.369-0.153c0.155-2.382-2.05-5.608,2.279-6.571c0.348-0.077,0.564-0.741,0.842-1.132
			c-0.526-0.222-1.035-0.534-1.583-0.635c-0.499-0.093-1.398,0.23-1.493,0.048c-0.266-0.514-0.224-1.191-0.268-1.808
			c-0.037-0.501,0.168-1.299-0.069-1.451c-0.524-0.342-1.259-0.361-1.909-0.51c-0.119,0.638-0.106,1.344-0.389,1.902
			c-0.492,0.973-1.14,1.873-1.775,2.77c-0.273,0.384-0.679,0.677-1.025,1.011c0.497,0.405,1.006,0.798,1.485,1.224
			c0.411,0.363,1.006,0.706,1.138,1.165C32.68,13.036,33.189,15.301,33.749,17.581z M90.553,17.594
			c1.976-0.477,2.512-0.441,2.745-0.691c0.788-0.847,1.469-1.792,2.19-2.701c-0.842,0.26-1.672,0.574-2.533,0.757
			c-0.434,0.091-1.328-0.077-1.327-0.093c0.128-2.386-2.102-5.568,2.171-6.622c0.386-0.095,0.64-0.71,0.956-1.083
			c-0.513-0.256-1.003-0.621-1.546-0.729c-0.52-0.104-1.45,0.265-1.574,0.054c-0.288-0.481-0.215-1.187-0.246-1.805
			c-0.024-0.484,0.207-1.263-0.009-1.404c-0.538-0.353-1.267-0.415-1.92-0.594c-0.139,0.661-0.155,1.383-0.442,1.972
			c-0.47,0.962-1.08,1.867-1.707,2.743c-0.275,0.385-0.742,0.636-1.121,0.947c0.509,0.431,1.024,0.854,1.525,1.295
			c0.395,0.347,0.996,0.653,1.119,1.088C89.472,12.985,89.986,15.276,90.553,17.594z M217.285,10.493
			c-0.4,0.423-0.801,0.847-1.2,1.27c1.123,1.771,2.055,3.735,3.508,5.174c0.342,0.34,2.462-1.039,3.703-1.737
			c0.188-0.106,0.043-0.81,0.055-1.234c-0.39,0.078-0.78,0.146-1.164,0.24c-0.856,0.202-1.706,0.418-2.559,0.63
			c0.201-2.379-2.017-5.574,2.27-6.597c0.372-0.09,0.612-0.724,0.914-1.105c-0.518-0.241-1.014-0.585-1.559-0.694
			c-0.522-0.104-1.462,0.236-1.572,0.034c-0.27-0.496-0.179-1.194-0.207-1.812c-0.022-0.485,0.175-1.261-0.049-1.402
			c-0.538-0.345-1.267-0.392-1.919-0.56c-0.138,0.635-0.157,1.324-0.436,1.89c-0.483,0.979-1.088,1.912-1.721,2.809
			c-0.26,0.366-0.727,0.589-1.099,0.878c0.425,0.453,0.794,0.98,1.287,1.34C216.06,9.992,216.697,10.206,217.285,10.493z
			 M143.139,8.068c0.233-0.061,0.467-0.122,0.702-0.183c0-1.796,0.081-3.597-0.042-5.384c-0.048-0.691-0.648-1.951-0.845-1.924
			c-1.111,0.167-2.178,0.644-3.26,1.015c0.595,0.39,1.208,0.755,1.774,1.181c0.172,0.128,0.312,0.418,0.308,0.633
			c-0.042,3.546-0.096,7.094-0.19,10.641c-0.012,0.396-0.234,0.812-0.445,1.17c-0.248,0.418-0.59,0.782-0.891,1.17
			c1.588,0.058,3.175,0.136,4.762,0.128c0.099-0.001,0.348-0.703,0.265-1.01C144.599,13.017,143.859,10.545,143.139,8.068z
			 M200.111,8.02c0.238-0.063,0.476-0.126,0.713-0.188c0-1.7,0.086-3.406-0.039-5.096c-0.057-0.768-0.612-2.166-0.807-2.144
			c-1.119,0.131-2.199,0.604-3.29,0.96c0.607,0.411,1.228,0.806,1.813,1.245c0.148,0.113,0.264,0.374,0.262,0.565
			c-0.047,3.611-0.1,7.225-0.196,10.836c-0.01,0.355-0.27,0.733-0.489,1.048c-0.256,0.367-0.597,0.678-0.9,1.013
			c1.56,0.109,3.12,0.242,4.684,0.274c0.141,0.003,0.488-0.702,0.412-0.99C201.595,13.023,200.841,10.524,200.111,8.02z
			 M137.034,10.188c0.209-0.068,0.416-0.137,0.623-0.206c0-1.026,0.117-2.073-0.057-3.069c-0.071-0.404-0.861-1.05-1.182-0.975
			c-1.011,0.235-1.952,0.76-2.921,1.172c0.302,0.393,0.57,0.82,0.916,1.168c0.287,0.289,0.966,0.493,0.96,0.722
			c-0.043,1.979-0.151,3.96-0.371,5.925c-0.049,0.455-0.606,0.853-0.93,1.276c1.572,0.131,3.143,0.264,4.716,0.395
			c0.025-0.454,0.188-0.953,0.057-1.354C138.29,13.539,137.646,11.868,137.034,10.188z M27.302,10.27
			c0.212-0.073,0.425-0.146,0.639-0.22c0-1.058,0.104-2.134-0.054-3.167c-0.06-0.386-0.825-1.022-1.116-0.949
			c-1.033,0.264-1.999,0.782-2.99,1.204c0.311,0.385,0.595,0.795,0.942,1.144c0.288,0.288,0.941,0.51,0.935,0.746
			c-0.055,1.971-0.174,3.946-0.4,5.902c-0.049,0.432-0.601,0.805-0.923,1.206c1.558,0.161,3.115,0.329,4.676,0.427
			c0.033,0.003,0.277-0.884,0.149-1.267C28.595,13.604,27.93,11.941,27.302,10.27z M227.624,10.204
			c0.21-0.069,0.418-0.14,0.628-0.208c0-1.027,0.117-2.074-0.057-3.07c-0.071-0.407-0.853-1.061-1.168-0.988
			c-1.014,0.231-1.959,0.751-2.933,1.159c0.298,0.397,0.557,0.831,0.903,1.181c0.286,0.289,0.976,0.483,0.971,0.71
			c-0.041,1.981-0.144,3.967-0.361,5.935c-0.049,0.452-0.617,0.846-0.946,1.268c1.57,0.135,3.14,0.271,4.709,0.41
			c0.034-0.453,0.209-0.952,0.077-1.351C228.889,13.552,228.24,11.883,227.624,10.204z M68.895,14.817
			c-0.913-0.577-1.546-0.977-2.178-1.378c-0.871,1.629-1.781,3.238-2.562,4.909c-0.094,0.2,0.512,0.729,0.795,1.103
			C66.105,18.095,67.261,16.736,68.895,14.817z M229.723,2.811c-1.63-1.217-2.246-1.677-2.863-2.138
			c-0.408,0.585-1.208,1.229-1.127,1.734c0.1,0.611,0.876,1.418,1.486,1.549C227.776,4.077,228.504,3.408,229.723,2.811z
			 M134.321,2.54c1.066,0.703,1.687,1.415,2.293,1.406c0.422-0.009,1.221-1.078,1.141-1.553c-0.108-0.636-0.903-1.153-1.404-1.721
			C135.819,1.162,135.286,1.651,134.321,2.54z M23.111,1.703c2.556,1.593,3.2,2.31,3.753,2.245c0.477-0.057,1.271-1.096,1.171-1.528
			c-0.153-0.661-0.875-1.516-1.498-1.657C25.835,0.603,24.973,1.146,23.111,1.703z M43.333,2.085
			c2.38,1.492,2.944,2.127,3.424,2.068c0.464-0.057,1.251-0.924,1.17-1.262c-0.162-0.675-0.732-1.609-1.295-1.74
			C45.939,0.99,45.08,1.543,43.333,2.085z M45.901,1.697c-1.464-0.312-2.329-0.757-3.006-0.557
			c-0.564,0.164-1.168,1.049-1.255,1.684c-0.055,0.407,0.722,1.15,1.264,1.331C43.194,4.252,43.777,3.481,45.901,1.697z"/>
		<path fill-rule="evenodd" clip-rule="evenodd" d="M154.119,46.479c-1.381-0.205-3.1,0.028-4.065-0.714
			c-1.534-1.182-2.665-2.946-3.774-4.593c-0.625-0.926-0.885-2.104-1.273-3.181c-0.126-0.354-0.249-1.055-0.187-1.077
			c1.045-0.375,2.11-0.709,3.197-0.935c0.152-0.03,0.607,0.547,0.622,0.855c0.067,1.474-0.194,2.998,0.103,4.412
			c0.235,1.119,1.108,2.107,1.697,3.154c1.112-1.111,2.779-2.062,3.165-3.384c0.323-1.106-0.858-2.644-1.357-3.996
			c-0.132-0.357-0.333-1.038-0.281-1.06c0.88-0.376,1.777-0.789,2.71-0.921c0.324-0.045,1.074,0.643,1.083,1.008
			c0.051,2.243-0.068,4.487-0.1,6.734c-0.005,0.317,0.05,0.795,0.255,0.933c0.665,0.444,1.39,0.957,2.137,1.044
			c0.318,0.036,1.062-0.906,1.082-1.423c0.108-2.819,0.16-5.65-0.01-8.465c-0.057-0.942-0.81-1.849-1.271-2.758
			c-0.229-0.457-0.518-0.884-0.78-1.324c1.051-0.344,2.09-0.87,3.156-0.941c0.424-0.028,1.215,0.901,1.312,1.483
			c0.204,1.218-0.016,2.499,0.101,3.739c0.033,0.351,0.701,0.978,0.949,0.922c4.259-0.968,7.087,1.229,7.184,5.534
			c0.016,0.633,0.677,1.254,1.04,1.879c0.212,0.361,0.53,0.709,0.586,1.093c0.022,0.159-0.508,0.544-0.812,0.573
			c-1.268,0.119-2.545,0.201-3.816,0.164c-0.341-0.01-0.7-0.453-0.979-0.763c-0.063-0.07,0.224-0.401,0.261-0.626
			c0.299-1.878,0.578-3.761,0.863-5.643c-1.315-0.085-2.64-0.282-3.944-0.195c-0.477,0.031-1.314,0.77-1.287,1.137
			c0.123,1.739,0.485,3.46,0.763,5.188c0.083,0.521,0.285,1.066,0.188,1.552c-0.052,0.252-0.636,0.397-0.979,0.592
			c-1.095,0-2.189,0-3.285,0c-1.029,0-2.06,0-3.09,0C154.893,46.479,154.506,46.479,154.119,46.479z"/>
		<path fill-rule="evenodd" clip-rule="evenodd" d="M31.653,46.479c0.009-0.802,0.16-1.634,0.003-2.403
			c-0.501-2.462-1.118-4.899-1.683-7.349c-0.05-0.217-0.104-0.625-0.057-0.641c1.021-0.33,2.072-0.912,3.087-0.857
			c3.077,0.164,6.177,1.024,9.204,0.787c4.207-0.332,6.552,2.152,5.579,6.595c-0.089,0.407,0.419,0.962,0.692,1.425
			c0.198,0.335,0.466,0.63,0.704,0.942c-0.531,0.238-1.054,0.659-1.594,0.68c-1.109,0.044-2.228-0.125-3.343-0.206
			c0.409-0.485,1.185-0.986,1.163-1.451c-0.104-2.2-0.425-4.388-0.669-6.579c-1.254,0.444-3.443,0.702-3.578,1.374
			c-0.331,1.644,0.278,3.478,0.529,5.233c0.041,0.284,0.186,0.552,0.282,0.83c-1.412,0.202-2.82,0.456-4.24,0.561
			c-0.245,0.019-0.537-0.6-0.807-0.923c0.292-0.227,0.789-0.415,0.842-0.689c0.286-1.464,0.712-2.974,0.573-4.418
			c-0.076-0.783-1.184-1.467-1.825-2.195c-0.862,0.85-2.39,1.657-2.444,2.556c-0.104,1.715,0.696,3.469,0.956,5.23
			c0.044,0.305-0.664,0.863-1.129,1.062c-0.631,0.269-1.364,0.302-2.054,0.437C31.782,46.479,31.718,46.479,31.653,46.479z"/>
		<path fill-rule="evenodd" clip-rule="evenodd" d="M104.284,46.479c0.271-0.836,0.756-1.667,0.775-2.511
			c0.086-3.717,0.04-7.437,0.03-11.158c-0.001-0.194-0.068-0.463-0.204-0.568c-0.616-0.49-1.268-0.933-1.907-1.391
			c0.999-0.363,1.987-0.949,3.001-0.997c0.488-0.022,1.528,1.049,1.457,1.486c-0.556,3.397,0.163,4.962,4.195,4.853
			c1.292-0.032,2.717,3.063,3.984,4.795c0.533,0.729,0.816,1.641,1.215,2.467c0.172,0.354,0.493,0.711,0.477,1.054
			c-0.009,0.21-0.518,0.539-0.825,0.566c-1.267,0.117-2.544,0.2-3.815,0.162c-0.336-0.01-0.692-0.462-0.966-0.774
			c-0.062-0.071,0.235-0.397,0.271-0.621c0.305-1.849,0.591-3.701,0.88-5.554c-1.295-0.118-2.595-0.348-3.884-0.293
			c-0.495,0.021-1.399,0.729-1.371,1.062c0.154,1.784,0.651,3.539,0.793,5.323c0.052,0.675-0.532,1.398-0.826,2.1
			C106.473,46.479,105.377,46.479,104.284,46.479z"/>
		<path fill-rule="evenodd" clip-rule="evenodd" d="M80.331,46.479c0.203-0.866,0.551-1.729,0.583-2.6
			c0.076-2.114,0.039-4.234-0.016-6.352c-0.046-1.808-0.181-3.614-0.279-5.421c-0.008-0.157,0.018-0.392-0.07-0.456
			c-0.57-0.427-1.167-0.819-1.753-1.221c1.166-0.222,2.329-0.546,3.498-0.571c0.221-0.005,0.637,1.179,0.669,1.829
			c0.093,1.825-0.003,3.659,0.047,5.488c0.024,0.852,0.215,1.699,0.331,2.548c0.625-1.043,1.182-2.138,1.908-3.107
			c0.317-0.425,1.017-0.889,1.473-0.825c1.285,0.175,2.534,0.614,3.796,0.949c-0.511,0.279-1.046,0.523-1.529,0.847
			c-0.961,0.647-1.895,1.34-2.839,2.014c1.146,1.373,2.319,2.725,3.422,4.131c0.449,0.573,0.745,1.265,1.111,1.9
			c-0.841-0.184-1.833-0.15-2.486-0.604c-1.17-0.813-2.097-1.967-3.212-2.871c-0.319-0.261-1.284-0.332-1.359-0.187
			c-0.35,0.678-0.516,1.459-0.699,2.212c-0.186,0.759-0.315,1.531-0.469,2.296C81.747,46.479,81.039,46.479,80.331,46.479z"/>
		<path fill-rule="evenodd" clip-rule="evenodd" d="M134.03,46.479c0.204-0.866,0.55-1.729,0.582-2.602
			c0.077-2.114,0.04-4.234-0.015-6.351c-0.046-1.807-0.182-3.614-0.28-5.42c-0.008-0.158,0.018-0.392-0.071-0.456
			c-0.569-0.427-1.164-0.818-1.753-1.22c1.166-0.223,2.329-0.548,3.5-0.575c0.219-0.004,0.636,1.179,0.669,1.828
			c0.092,1.825-0.003,3.659,0.047,5.487c0.023,0.853,0.214,1.703,0.325,2.554c0.628-1.043,1.187-2.134,1.912-3.103
			c0.318-0.425,1.016-0.892,1.471-0.83c1.284,0.174,2.536,0.611,3.801,0.946c-0.512,0.279-1.049,0.523-1.53,0.848
			c-0.963,0.648-1.896,1.34-2.841,2.014c1.146,1.372,2.319,2.724,3.422,4.131c0.449,0.571,0.747,1.265,1.113,1.901
			c-0.841-0.184-1.834-0.15-2.486-0.604c-1.171-0.813-2.096-1.967-3.212-2.871c-0.319-0.261-1.283-0.332-1.359-0.186
			c-0.352,0.677-0.517,1.457-0.701,2.211c-0.186,0.759-0.314,1.531-0.467,2.296C135.447,46.479,134.739,46.479,134.03,46.479z"/>
		<path fill-rule="evenodd" clip-rule="evenodd" d="M51.742,46.479c-0.628-0.858-1.893-2.373-1.789-2.474
			c1.642-1.581,3.425-3.027,5.26-4.39c0.586-0.436,1.966-0.459,2.022-0.818c0.119-0.765-0.393-1.629-0.646-2.451
			c-0.864,0.266-1.758,0.465-2.587,0.815c-1.252,0.53-2.459,1.165-3.686,1.756c1.105-1.247,1.979-2.973,3.364-3.642
			c2.805-1.351,4.939-0.523,5.581,2.924c0.396,2.125,1.238,4.171,1.561,6.302c0.086,0.567-1,1.313-1.548,1.978
			c-0.515,0-1.03,0-1.545,0c-1.223,0-2.446,0-3.669,0C53.288,46.479,52.515,46.479,51.742,46.479z M53.3,45.198
			c1.475-0.995,2.871-1.938,4.267-2.879c-0.339-0.296-0.833-0.915-0.994-0.839c-1.589,0.755-3.123,1.626-4.673,2.464
			C52.216,44.227,52.531,44.511,53.3,45.198z"/>
		<path fill-rule="evenodd" clip-rule="evenodd" d="M227.137,46.479c-0.627-0.858-1.894-2.373-1.788-2.476
			c1.641-1.58,3.423-3.025,5.258-4.388c0.587-0.436,1.967-0.457,2.023-0.817c0.12-0.766-0.392-1.63-0.643-2.452
			c-0.866,0.265-1.76,0.463-2.589,0.812c-1.253,0.531-2.459,1.167-3.684,1.76c1.104-1.247,1.976-2.971,3.358-3.639
			c2.807-1.357,4.938-0.524,5.582,2.921c0.396,2.124,1.237,4.171,1.561,6.301c0.085,0.568-0.998,1.314-1.547,1.979
			c-0.515,0-1.03,0-1.546,0c-1.222,0-2.445,0-3.668,0C228.682,46.479,227.909,46.479,227.137,46.479z M228.745,45.184
			c1.445-0.99,2.829-1.938,4.214-2.888c-0.347-0.289-0.848-0.896-1.016-0.815c-1.583,0.761-3.108,1.64-4.649,2.486
			C227.621,44.242,227.949,44.518,228.745,45.184z"/>
		<path fill-rule="evenodd" clip-rule="evenodd" d="M21.995,46.479c-4.396-2.29-4.078-6.016-1.712-9.046
			c1.298-1.663,4.512-1.836,6.862-2.679c0.515,1.602,1.341,3.201,1.354,4.808c0.004,0.483-2.239,1.02-3.474,1.472
			c-1.459,0.535-2.947,0.99-4.386,1.573c-0.037,0.016,0.388,1.601,0.543,1.591c1.672-0.104,3.335-0.373,4.997-0.618
			c0.8-0.117,1.591-0.282,2.387-0.426c-0.651,0.768-1.192,1.689-1.986,2.265c-0.747,0.542-1.759,0.721-2.653,1.061
			C23.282,46.479,22.639,46.479,21.995,46.479z M27.551,38.244c-1.153-1.521-1.56-2.058-1.967-2.593
			c-1.462,1.308-2.923,2.615-4.385,3.923c0.134,0.125,0.303,0.382,0.396,0.356C23.34,39.46,25.077,38.954,27.551,38.244z"/>
		<path fill-rule="evenodd" clip-rule="evenodd" d="M209.171,46.479c-1.38-0.205-3.098,0.028-4.063-0.714
			c-1.536-1.181-2.666-2.945-3.776-4.59c-0.625-0.928-0.883-2.106-1.271-3.183c-0.126-0.354-0.253-1.054-0.19-1.076
			c1.044-0.376,2.109-0.711,3.195-0.938c0.151-0.03,0.61,0.543,0.626,0.851c0.067,1.472-0.193,2.996,0.103,4.411
			c0.233,1.123,1.102,2.111,1.69,3.161c1.113-1.108,2.783-2.056,3.17-3.377c0.324-1.104-0.855-2.644-1.354-3.996
			c-0.131-0.357-0.338-1.041-0.288-1.061c0.879-0.378,1.775-0.806,2.707-0.924c0.329-0.042,1.086,0.698,1.094,1.095
			c0.051,2.241-0.07,4.485-0.12,6.73c-0.005,0.245,0,0.668,0.116,0.715c4.291,1.711,0.207,2.024-0.479,2.895
			C209.943,46.479,209.558,46.479,209.171,46.479z"/>
		<path fill-rule="evenodd" clip-rule="evenodd" d="M180.775,46.479c-1.38-0.205-3.098,0.027-4.063-0.714
			c-1.534-1.181-2.666-2.944-3.775-4.59c-0.626-0.927-0.885-2.104-1.272-3.183c-0.126-0.353-0.25-1.053-0.187-1.076
			c1.043-0.377,2.11-0.711,3.195-0.94c0.15-0.03,0.609,0.546,0.623,0.854c0.067,1.472-0.193,2.998,0.103,4.412
			c0.233,1.122,1.104,2.11,1.69,3.159c1.115-1.109,2.783-2.055,3.172-3.376c0.325-1.105-0.857-2.645-1.355-3.996
			c-0.132-0.358-0.336-1.041-0.287-1.062c0.878-0.377,1.774-0.805,2.706-0.922c0.33-0.043,1.085,0.698,1.094,1.094
			c0.051,2.241-0.069,4.485-0.12,6.73c-0.006,0.245-0.001,0.668,0.115,0.715c4.303,1.713,0.2,2.022-0.478,2.895
			C181.549,46.479,181.163,46.479,180.775,46.479z"/>
		<path fill-rule="evenodd" clip-rule="evenodd" d="M65.65,46.479c-1.254-0.742-2.509-1.484-3.764-2.229
			c1.564,0.115,3.126,0.288,4.693,0.321c0.782,0.017,1.569-0.222,2.356-0.346c-0.708-0.542-1.461-1.035-2.111-1.64
			c-1.372-1.272-2.688-2.604-4.027-3.911c2.297-1.012,4.509-2.505,6.912-2.93c4.231-0.747,1.623,2.39,1.794,3.898
			c0.026,0.238-0.543,0.545-0.837,0.817c-0.276-0.312-0.659-0.583-0.807-0.948c-0.383-0.941-0.665-1.926-0.985-2.893
			c-1.279,0.867-2.556,1.734-3.834,2.601c1.182,0.707,2.313,1.527,3.559,2.1c2.747,1.264,4.985,2.527,1.108,5.159
			C68.354,46.479,67.002,46.479,65.65,46.479z"/>
		<path fill-rule="evenodd" clip-rule="evenodd" d="M5.189,46.479c-5.237-1.217-6.655-4.724-3.591-8.608
			c1.323-1.678,5.744-2.413,7.977-1.556c3.779,1.453,2.219,7.864-2.261,10.164C6.606,46.479,5.897,46.479,5.189,46.479z
			 M7.353,35.969c-0.676-0.04-1.353-0.081-2.028-0.12c-0.961,1.906-2.399,3.744-2.685,5.746c-0.148,1.042,1.735,2.373,2.7,3.573
			c1.316-1.622,3.123-3.079,3.76-4.934C9.476,39.14,7.998,37.412,7.353,35.969z"/>
		<path fill-rule="evenodd" clip-rule="evenodd" d="M96.364,46.479c-5.237-1.218-6.657-4.724-3.59-8.607
			c1.322-1.679,5.744-2.415,7.976-1.557c3.779,1.453,2.219,7.868-2.261,10.164C97.78,46.479,97.071,46.479,96.364,46.479z
			 M102.207,40.646c-2.251-2.068-3.426-3.147-4.601-4.226c-1.33,1.696-3.073,3.241-3.782,5.164c-0.279,0.762,1.75,2.365,2.729,3.584
			C98.129,43.908,99.704,42.647,102.207,40.646z"/>
		<path fill-rule="evenodd" clip-rule="evenodd" d="M195.458,46.479c-0.761-1.274-1.538-2.536-2.275-3.823
			c-0.744-1.299-1.448-2.621-2.171-3.932c-0.235-0.43-0.627-0.853-0.643-1.29c-0.011-0.231,0.734-0.419,0.959-0.748
			c0.64-0.938,1.239-1.913,1.749-2.926c0.261-0.519,0.193-1.586,0.447-1.643c0.585-0.132,1.349,0.078,1.889,0.401
			c0.236,0.141,0.111,0.894,0.144,1.371c0.043,0.639,0.081,1.279,0.12,1.92c0.551-0.042,1.125-0.201,1.647-0.095
			c0.542,0.108,1.033,0.475,1.546,0.729c-0.314,0.373-0.568,0.99-0.951,1.083c-4.271,1.051-2.043,4.234-2.233,6.614
			c0.548,0.004,1.12,0.103,1.644-0.011c0.755-0.162,1.478-0.475,2.214-0.724c-0.487,0.797-0.931,1.625-1.484,2.375
			c-0.235,0.319-0.697,0.472-1.056,0.697C196.487,46.479,195.972,46.479,195.458,46.479z"/>
		<path fill-rule="evenodd" clip-rule="evenodd" d="M121.861,46.479c-0.76-1.274-1.538-2.537-2.275-3.825
			c-0.744-1.299-1.449-2.62-2.17-3.931c-0.237-0.43-0.625-0.854-0.643-1.293c-0.008-0.23,0.724-0.42,0.964-0.743
			c0.654-0.881,1.302-1.782,1.799-2.753c0.297-0.582,0.307-1.309,0.446-1.971c0.624,0.167,1.35,0.196,1.831,0.553
			c0.251,0.188,0.056,0.951,0.093,1.451c0.042,0.617-0.012,1.295,0.246,1.812c0.091,0.183,0.992-0.124,1.491-0.034
			c0.549,0.1,1.062,0.401,1.592,0.613c-0.302,0.403-0.538,1.072-0.916,1.166c-4.265,1.062-2.038,4.239-2.23,6.62
			c0.55,0.003,1.12,0.099,1.645-0.014c0.758-0.162,1.479-0.475,2.217-0.724c-0.488,0.796-0.935,1.625-1.488,2.373
			c-0.235,0.319-0.696,0.472-1.056,0.699C122.891,46.479,122.377,46.479,121.861,46.479z"/>
		<path fill-rule="evenodd" clip-rule="evenodd" d="M220.376,46.479c-0.436-0.426-0.87-0.854-1.303-1.28
			c0.37-0.236,0.812-0.412,1.092-0.728c0.244-0.275,0.418-0.71,0.427-1.08c0.092-3.582,0.146-7.165,0.191-10.749
			c0.004-0.191-0.117-0.45-0.267-0.562c-0.583-0.442-1.198-0.838-1.803-1.253c1.094-0.353,2.177-0.813,3.299-0.954
			c0.188-0.023,0.775,1.336,0.793,2.065c0.087,3.401-0.029,6.807,0.091,10.204c0.029,0.765,0.894,1.476,1.037,2.271
			c0.09,0.486-0.357,1.178-0.757,1.603c-0.235,0.252-0.839,0.156-1.277,0.229c-0.444,0.071-0.888,0.156-1.331,0.234
			C220.505,46.479,220.439,46.479,220.376,46.479z"/>
		<path fill-rule="evenodd" clip-rule="evenodd" d="M214.388,46.479c-0.436-0.426-0.869-0.854-1.305-1.278
			c0.372-0.239,0.813-0.415,1.094-0.732c0.243-0.274,0.418-0.709,0.427-1.078c0.091-3.583,0.146-7.164,0.19-10.748
			c0.004-0.191-0.116-0.449-0.266-0.562c-0.581-0.441-1.197-0.838-1.802-1.253c1.096-0.353,2.178-0.812,3.299-0.954
			c0.189-0.023,0.774,1.337,0.792,2.066c0.087,3.4-0.028,6.806,0.092,10.203c0.027,0.765,0.892,1.476,1.036,2.271
			c0.089,0.486-0.358,1.179-0.755,1.603c-0.235,0.252-0.842,0.156-1.277,0.228c-0.446,0.071-0.889,0.157-1.333,0.235
			C214.517,46.479,214.452,46.479,214.388,46.479z"/>
		<path fill-rule="evenodd" clip-rule="evenodd" d="M14.075,46.479c-0.434-0.428-0.869-0.854-1.304-1.281
			c0.372-0.237,0.814-0.411,1.094-0.727c0.243-0.277,0.416-0.711,0.425-1.08c0.092-3.582,0.147-7.164,0.193-10.749
			c0.001-0.189-0.117-0.449-0.266-0.562c-0.583-0.441-1.199-0.838-1.803-1.253c1.095-0.351,2.177-0.812,3.299-0.953
			c0.188-0.023,0.775,1.336,0.793,2.064c0.087,3.401-0.029,6.807,0.092,10.204c0.027,0.764,0.89,1.475,1.035,2.271
			c0.089,0.486-0.358,1.179-0.755,1.603c-0.236,0.252-0.841,0.156-1.278,0.228c-0.445,0.071-0.888,0.157-1.331,0.235
			C14.204,46.479,14.139,46.479,14.075,46.479z"/>
		<path fill-rule="evenodd" clip-rule="evenodd" fill="none" d="M229.455,46.479c1.223,0,2.446,0,3.668,0
			C231.901,46.479,230.678,46.479,229.455,46.479z"/>
		<path fill-rule="evenodd" clip-rule="evenodd" fill="none" d="M54.06,46.479c1.223,0,2.447,0,3.669,0
			C56.507,46.479,55.283,46.479,54.06,46.479z"/>
		<path fill-rule="evenodd" clip-rule="evenodd" fill="none" d="M155.278,46.479c1.03,0,2.061,0,3.09,0
			C157.339,46.479,156.309,46.479,155.278,46.479z"/>
		<path fill-rule="evenodd" clip-rule="evenodd" d="M16.372,11.946c-2.123,0.572-3.992,1.011-5.809,1.61
			c-0.46,0.15-0.752,0.811-1.122,1.239c0.304,0.199,0.71,0.338,0.886,0.618c0.232,0.369,0.36,0.85,0.369,1.282
			c0.003,0.146-0.488,0.42-0.765,0.435c-0.93,0.057-1.881,0.123-2.793-0.015c-0.535-0.081-1.012-0.543-1.514-0.833
			c0.382-0.359,0.903-0.649,1.125-1.09c1.266-2.507,2.508-5.029,3.665-7.589c0.923-2.042,1.61-4.196,2.62-6.19
			c0.343-0.678,1.443-1.514,2.036-1.404c0.988,0.182,2.387,0.883,2.667,1.689c1.33,3.839,2.338,7.788,3.466,11.699
			c0.07,0.241,0.129,0.507,0.272,0.703c0.539,0.735,1.111,1.446,1.669,2.166c-1.581,0.229-3.16,0.48-4.748,0.629
			c-0.097,0.01-0.456-0.836-0.37-1.212c0.19-0.837,1.064-1.922,0.788-2.366C18.385,12.627,17.229,12.384,16.372,11.946z
			 M16.467,10.316c0.123-0.086,1.267-0.637,1.204-0.872c-0.648-2.455-1.49-4.86-2.278-7.28c-1.338,2.802-2.678,5.604-4.015,8.405
			C12.847,10.497,14.316,10.424,16.467,10.316z"/>
		<path fill-rule="evenodd" clip-rule="evenodd" d="M120.082,13.059c-0.003-0.006,0.578,1.049,1.125,2.123
			c0.116,0.226,0.103,0.518,0.148,0.777c-1.446,0.199-2.891,0.432-4.342,0.555c-0.213,0.017-0.715-0.6-0.654-0.75
			c0.133-0.33,0.738-0.506,0.806-0.818c0.277-1.329,0.722-2.727,0.538-4.019c-0.152-1.064-1.101-2.017-1.698-3.019
			c-1.088,0.92-2.795,1.68-3.093,2.809c-0.314,1.197,0.717,2.741,1.145,4.14c0.075,0.249,0.074,0.521,0.11,0.781
			c-1.422,0.179-2.841,0.401-4.27,0.489c-0.222,0.014-0.483-0.583-0.727-0.898c0.317-0.238,0.863-0.436,0.914-0.722
			c0.263-1.483,0.65-3.019,0.482-4.478c-0.089-0.769-1.223-1.418-1.885-2.121c-0.836,0.842-2.324,1.65-2.371,2.535
			c-0.088,1.719,0.644,3.476,1.001,5.223c0.058,0.286-0.067,0.875-0.111,0.875c-1.588,0.013-3.175-0.026-4.763-0.059
			c0.326-0.401,0.847-0.767,0.939-1.217c0.277-1.364,0.665-2.798,0.481-4.133c-0.174-1.263-1.023-2.431-1.557-3.649
			c-0.094-0.218-0.166-0.674-0.138-0.682c1.022-0.329,2.072-0.912,3.086-0.858c3.078,0.166,6.167,0.988,9.205,0.793
			C118.208,6.495,120.08,7.797,120.082,13.059z"/>
		<path fill-rule="evenodd" clip-rule="evenodd" d="M54.553,5.68c1.368,0.312,3.089,0.218,4.026,1.028
			c1.69,1.459,2.942,3.435,4.308,5.246c0.495,0.658,0.797,1.462,1.179,2.203c0.193,0.373,0.368,0.755,0.552,1.135
			c-0.492,0.233-0.967,0.616-1.478,0.671c-1.018,0.106-2.065,0.102-3.083-0.004c-0.392-0.04-0.766-0.457-1.089-0.764
			c-0.059-0.055,0.22-0.401,0.256-0.629c0.301-1.88,0.582-3.764,0.869-5.646c-1.317-0.085-2.642-0.281-3.948-0.193
			c-0.475,0.032-1.31,0.772-1.285,1.141c0.125,1.738,0.461,3.468,0.794,5.185c0.073,0.376,0.706,0.905,0.627,1.004
			c-0.305,0.382-0.785,0.851-1.214,0.866c-1.322,0.045-2.651-0.104-3.978-0.178c0.405-0.531,1.148-1.057,1.163-1.6
			c0.106-4.009,0.104-8.02,0.043-12.028C52.285,2.36,51.856,1.61,51.62,0.858c1.266,0.54,2.531,1.079,3.797,1.618
			C55.129,3.545,54.841,4.612,54.553,5.68z"/>
		<path fill-rule="evenodd" clip-rule="evenodd" d="M47.958,12.021c0.729,0.997,1.492,1.972,2.161,3.005
			c0.19,0.295,0.226,1.068,0.125,1.109c-0.972,0.389-1.971,0.817-2.998,0.939c-1.075,0.127-2.228,0.09-3.276-0.164
			c-1.594-0.385-3.127-1.016-4.687-1.541c1.705-1.684,3.352-3.429,5.145-5.014c0.569-0.504,2.022-0.412,2.177-0.886
			c0.219-0.665-0.396-1.603-0.654-2.424c-0.915,0.32-1.851,0.585-2.738,0.968c-1.177,0.508-2.314,1.106-3.469,1.667
			c0.956-1.195,1.696-2.767,2.933-3.475c1.089-0.623,3.399-0.891,3.996-0.24c1.281,1.393,1.804,3.478,2.637,5.277
			C48.858,11.503,48.409,11.762,47.958,12.021z M41.658,16.555c2.466-1.626,3.875-2.555,5.284-3.485
			c-0.327-0.307-0.807-0.943-0.957-0.874c-1.599,0.745-3.167,1.569-4.674,2.483C41.161,14.769,41.472,15.612,41.658,16.555z"/>
		<path fill-rule="evenodd" clip-rule="evenodd" d="M193.607,11.998c0.723,1.002,1.481,1.982,2.148,3.021
			c0.19,0.299,0.24,1.069,0.145,1.106c-0.971,0.393-1.969,0.83-2.996,0.954c-1.074,0.127-2.225,0.081-3.272-0.171
			c-1.596-0.382-3.134-1.005-4.696-1.525c1.698-1.687,3.338-3.437,5.126-5.021c0.569-0.504,2.027-0.399,2.191-0.877
			c0.226-0.66-0.389-1.604-0.645-2.429c-0.939,0.33-1.901,0.611-2.814,1.005c-1.152,0.495-2.264,1.084-3.395,1.631
			c0.897-1.158,1.574-2.698,2.752-3.37c1.137-0.645,3.465-1.043,4.072-0.408c1.321,1.379,1.881,3.484,2.75,5.295
			C194.519,11.47,194.063,11.734,193.607,11.998z M188.318,15.917c1.479-0.998,2.877-1.939,4.271-2.88
			c-0.338-0.296-0.832-0.917-0.993-0.842c-1.588,0.756-3.124,1.624-4.675,2.462C187.237,14.941,187.551,15.225,188.318,15.917z"/>
		<path fill-rule="evenodd" clip-rule="evenodd" d="M212.688,13.062c-0.018-0.025,0.728,0.928,1.387,1.937
			c0.195,0.3,0.278,1.062,0.198,1.096c-0.969,0.402-1.956,0.867-2.979,0.993c-1.104,0.133-2.283,0.071-3.37-0.172
			c-1.553-0.346-3.048-0.935-4.568-1.42c1.481-1.659,2.866-3.426,4.492-4.932c0.699-0.646,2.031-0.585,2.796-1.195
			c0.234-0.186-0.459-1.533-0.729-2.35c-1.125,0.476-2.268,0.92-3.375,1.438c-0.897,0.422-1.756,0.931-2.631,1.398
			c-0.08-0.281-0.309-0.751-0.218-0.821c1.526-1.212,2.976-3.146,4.671-3.402C213.067,4.926,212.512,8.646,212.688,13.062z
			 M206.676,15.914c1.476-0.996,2.87-1.938,4.265-2.879c-0.341-0.296-0.833-0.917-0.994-0.84c-1.59,0.757-3.124,1.627-4.674,2.465
			C205.589,14.945,205.905,15.225,206.676,15.914z"/>
		<path fill-rule="evenodd" clip-rule="evenodd" d="M132.481,10.356c-2.052,0.601-4.144,1.096-6.138,1.849
			c-0.888,0.335-1.577,1.193-2.355,1.812c1.073,0.367,2.147,0.737,3.223,1.099c0.084,0.028,0.193,0.003,0.285-0.021
			c1.472-0.405,2.944-0.814,4.415-1.224c-0.454,0.669-0.852,1.859-1.372,1.917c-2.372,0.258-5.215,0.971-7.01-0.036
			c-1.105-0.622-1.486-4.478-0.652-6.097c1.057-2.062,3.477-3.802,5.706-4.698c0.837-0.337,2.786,2.079,4.229,3.239
			C132.7,8.916,132.592,9.637,132.481,10.356z M130.966,8.942c-1.229-1.533-1.647-2.053-2.065-2.574
			c-1.452,1.316-2.905,2.632-4.359,3.949c0.144,0.115,0.32,0.357,0.424,0.328C126.705,10.175,128.434,9.669,130.966,8.942z"/>
		<path fill-rule="evenodd" clip-rule="evenodd" d="M87.263,9.957c-2.86,0.913-4.558,1.435-6.242,2.001
			c-1.153,0.389-2.302,0.804-3.392,1.332c-0.09,0.045,0.252,1.522,0.457,1.539c1.29,0.102,2.622,0.113,3.895-0.109
			c1.174-0.204,2.291-0.742,3.431-1.132c0.047,0.318,0.218,0.869,0.123,0.92c-1.737,0.918-3.489,2.397-5.272,2.444
			c-1.355,0.032-3.977-1.863-3.912-2.739c0.204-2.694,1.07-5.519,2.428-7.861c0.583-1.005,3.201-1.582,4.548-1.185
			C84.559,5.532,85.323,7.47,87.263,9.957z M84.632,8.939c-1.258-1.539-1.68-2.055-2.102-2.571c-1.451,1.319-2.899,2.64-4.348,3.96
			c0.146,0.111,0.326,0.347,0.433,0.317C80.353,10.176,82.08,9.671,84.632,8.939z"/>
		<path fill-rule="evenodd" clip-rule="evenodd" d="M168.952,13.29c0.048,0.097,0.615,1.183,1.139,2.289
			c0.1,0.212,0.077,0.714,0.023,0.727c-1.251,0.309-2.51,0.664-3.786,0.772c-0.335,0.028-0.736-0.737-1.109-1.139
			c0.289-0.237,0.799-0.445,0.832-0.715c0.273-2.136,0.486-4.28,0.626-6.431c0.019-0.281-0.488-0.598-0.752-0.9
			c-0.313-0.357-0.627-0.716-0.939-1.073c0.701-0.376,1.426-1.104,2.1-1.061c2.252,0.146,4.656,0.171,6.661,1.033
			c1.183,0.51,1.865,2.447,2.504,3.863c0.621,1.377,0.924,2.903,1.311,4.379c0.084,0.326-0.04,1.025-0.121,1.034
			c-1.353,0.14-2.712,0.242-4.068,0.229c-0.224-0.002-0.443-0.588-0.662-0.903c0.361-0.226,0.992-0.409,1.04-0.691
			c0.241-1.414,0.685-2.936,0.369-4.257c-0.275-1.151-1.466-2.086-2.252-3.114c-0.971,0.864-2.066,1.633-2.856,2.64
			C168.667,10.41,168.952,11.34,168.952,13.29z"/>
		<path fill-rule="evenodd" clip-rule="evenodd" d="M166.917,10.996c-3.875,2.952-5.784,5.422-8.126,5.944
			c-3.115,0.692-6.039-0.969-5.933-4.884c0.106-3.887,2.39-6.469,6.275-6.003C161.214,6.303,163.063,8.45,166.917,10.996z
			 M159.937,6.686c-0.676-0.035-1.354-0.07-2.03-0.105c-0.955,1.909-2.386,3.752-2.666,5.753c-0.145,1.038,1.751,2.359,2.725,3.552
			c1.308-1.598,3.131-3.03,3.732-4.861C162.071,9.893,160.588,8.153,159.937,6.686z"/>
		<path fill-rule="evenodd" clip-rule="evenodd" d="M33.749,17.581c-0.56-2.28-1.069-4.545-1.706-6.775
			c-0.131-0.459-0.727-0.802-1.138-1.165c-0.479-0.426-0.988-0.818-1.485-1.224c0.346-0.334,0.751-0.627,1.025-1.011
			c0.636-0.896,1.284-1.797,1.775-2.77c0.282-0.559,0.27-1.265,0.389-1.902c0.65,0.148,1.384,0.168,1.909,0.51
			c0.237,0.152,0.032,0.95,0.069,1.451c0.044,0.616,0.001,1.294,0.268,1.808c0.095,0.183,0.995-0.141,1.493-0.048
			c0.548,0.101,1.057,0.413,1.583,0.635c-0.278,0.391-0.494,1.055-0.842,1.132c-4.329,0.963-2.125,4.189-2.279,6.571
			c-0.002,0.029,0.919,0.238,1.369,0.153c0.857-0.163,1.686-0.478,2.526-0.729c-0.728,0.902-1.416,1.848-2.211,2.689
			C36.259,17.156,35.722,17.118,33.749,17.581z"/>
		<path fill-rule="evenodd" clip-rule="evenodd" d="M90.553,17.594c-0.567-2.317-1.081-4.608-1.719-6.867
			c-0.123-0.435-0.724-0.741-1.119-1.088c-0.501-0.441-1.016-0.864-1.525-1.295c0.379-0.312,0.846-0.562,1.121-0.947
			c0.627-0.876,1.237-1.781,1.707-2.743c0.288-0.589,0.303-1.311,0.442-1.972c0.653,0.179,1.382,0.241,1.92,0.594
			c0.216,0.142-0.015,0.92,0.009,1.404c0.031,0.618-0.042,1.323,0.246,1.805c0.124,0.211,1.054-0.158,1.574-0.054
			c0.543,0.108,1.033,0.474,1.546,0.729c-0.315,0.373-0.57,0.988-0.956,1.083c-4.273,1.054-2.043,4.236-2.171,6.622
			c-0.001,0.016,0.893,0.184,1.327,0.093c0.86-0.183,1.69-0.497,2.533-0.757c-0.722,0.909-1.403,1.854-2.19,2.701
			C93.065,17.152,92.529,17.117,90.553,17.594z"/>
		<path fill-rule="evenodd" clip-rule="evenodd" d="M217.285,10.493c-0.588-0.287-1.226-0.501-1.747-0.878
			c-0.493-0.359-0.862-0.887-1.287-1.34c0.372-0.289,0.839-0.512,1.099-0.878c0.633-0.896,1.237-1.829,1.721-2.809
			c0.278-0.565,0.298-1.255,0.436-1.89c0.652,0.168,1.381,0.215,1.919,0.56c0.224,0.142,0.026,0.917,0.049,1.402
			c0.028,0.617-0.062,1.315,0.207,1.812c0.11,0.202,1.05-0.139,1.572-0.034c0.545,0.109,1.041,0.453,1.559,0.694
			c-0.302,0.382-0.542,1.016-0.914,1.105c-4.286,1.022-2.068,4.218-2.27,6.597c0.853-0.212,1.702-0.428,2.559-0.63
			c0.384-0.094,0.774-0.162,1.164-0.24c-0.012,0.425,0.134,1.128-0.055,1.234c-1.241,0.698-3.361,2.077-3.703,1.737
			c-1.453-1.438-2.385-3.402-3.508-5.174C216.484,11.34,216.885,10.916,217.285,10.493z"/>
		<path fill-rule="evenodd" clip-rule="evenodd" d="M143.139,8.068c0.721,2.477,1.46,4.948,2.138,7.437
			c0.083,0.307-0.166,1.009-0.265,1.01c-1.587,0.008-3.174-0.07-4.762-0.128c0.301-0.388,0.643-0.752,0.891-1.17
			c0.211-0.357,0.434-0.774,0.445-1.17c0.095-3.547,0.148-7.095,0.19-10.641c0.004-0.215-0.136-0.505-0.308-0.633
			c-0.566-0.426-1.18-0.791-1.774-1.181c1.082-0.371,2.148-0.848,3.26-1.015c0.196-0.027,0.797,1.232,0.845,1.924
			c0.123,1.787,0.042,3.588,0.042,5.384C143.605,7.946,143.372,8.008,143.139,8.068z"/>
		<path fill-rule="evenodd" clip-rule="evenodd" d="M200.111,8.02c0.729,2.505,1.483,5.004,2.162,7.524
			c0.076,0.288-0.271,0.993-0.412,0.99c-1.563-0.032-3.124-0.165-4.684-0.274c0.304-0.335,0.645-0.646,0.9-1.013
			c0.22-0.314,0.479-0.692,0.489-1.048c0.097-3.611,0.149-7.225,0.196-10.836c0.002-0.191-0.113-0.452-0.262-0.565
			c-0.586-0.439-1.206-0.834-1.813-1.245c1.091-0.356,2.171-0.829,3.29-0.96c0.194-0.022,0.75,1.376,0.807,2.144
			c0.125,1.689,0.039,3.396,0.039,5.096C200.587,7.894,200.35,7.956,200.111,8.02z"/>
		<path fill-rule="evenodd" clip-rule="evenodd" d="M137.034,10.188c0.611,1.681,1.256,3.352,1.812,5.053
			c0.131,0.401-0.031,0.9-0.057,1.354c-1.573-0.131-3.144-0.264-4.716-0.395c0.323-0.424,0.881-0.821,0.93-1.276
			c0.22-1.965,0.328-3.946,0.371-5.925c0.006-0.229-0.673-0.433-0.96-0.722c-0.346-0.348-0.614-0.775-0.916-1.168
			c0.969-0.412,1.91-0.937,2.921-1.172c0.32-0.075,1.11,0.57,1.182,0.975c0.174,0.996,0.057,2.043,0.057,3.069
			C137.45,10.051,137.243,10.119,137.034,10.188z"/>
		<path fill-rule="evenodd" clip-rule="evenodd" d="M27.302,10.27c0.628,1.672,1.293,3.334,1.858,5.026
			c0.127,0.383-0.117,1.27-0.149,1.267c-1.561-0.098-3.118-0.266-4.676-0.427c0.322-0.401,0.874-0.774,0.923-1.206
			c0.226-1.956,0.346-3.932,0.4-5.902c0.006-0.236-0.647-0.458-0.935-0.746c-0.348-0.349-0.631-0.759-0.942-1.144
			c0.991-0.422,1.957-0.94,2.99-1.204c0.291-0.073,1.056,0.563,1.116,0.949c0.159,1.033,0.054,2.109,0.054,3.167
			C27.727,10.123,27.514,10.196,27.302,10.27z"/>
		<path fill-rule="evenodd" clip-rule="evenodd" d="M227.624,10.204c0.616,1.679,1.265,3.348,1.823,5.045
			c0.132,0.398-0.043,0.897-0.077,1.351c-1.569-0.139-3.139-0.275-4.709-0.412c0.329-0.42,0.897-0.813,0.946-1.266
			c0.218-1.968,0.32-3.953,0.361-5.935c0.005-0.227-0.685-0.421-0.971-0.71c-0.347-0.35-0.605-0.783-0.903-1.181
			c0.974-0.408,1.919-0.928,2.933-1.159c0.315-0.072,1.097,0.581,1.168,0.988c0.174,0.996,0.057,2.043,0.057,3.07
			C228.042,10.064,227.834,10.135,227.624,10.204z"/>
		<path fill-rule="evenodd" clip-rule="evenodd" d="M68.895,14.817c-1.633,1.919-2.789,3.277-3.945,4.634
			c-0.283-0.374-0.889-0.902-0.795-1.103c0.78-1.671,1.69-3.28,2.562-4.909C67.349,13.841,67.982,14.24,68.895,14.817z"/>
		<path fill-rule="evenodd" clip-rule="evenodd" d="M229.723,2.811c-1.219,0.598-1.946,1.267-2.504,1.146
			c-0.61-0.131-1.387-0.938-1.486-1.549c-0.081-0.505,0.719-1.149,1.127-1.734C227.477,1.134,228.093,1.594,229.723,2.811z"/>
		<path fill-rule="evenodd" clip-rule="evenodd" d="M134.321,2.54c0.965-0.889,1.498-1.378,2.029-1.867
			c0.501,0.567,1.296,1.085,1.404,1.721c0.08,0.475-0.719,1.544-1.141,1.553C136.008,3.955,135.388,3.243,134.321,2.54z"/>
		<path fill-rule="evenodd" clip-rule="evenodd" d="M23.111,1.703c1.861-0.558,2.724-1.101,3.426-0.94
			c0.624,0.142,1.345,0.996,1.498,1.657c0.1,0.433-0.694,1.472-1.171,1.528C26.312,4.013,25.667,3.296,23.111,1.703z"/>
		<path fill-rule="evenodd" clip-rule="evenodd" d="M43.333,2.085c1.747-0.542,2.605-1.095,3.299-0.934
			c0.563,0.131,1.134,1.065,1.295,1.74c0.081,0.338-0.706,1.205-1.17,1.262C46.278,4.212,45.713,3.577,43.333,2.085z"/>
		<path fill-rule="evenodd" clip-rule="evenodd" d="M45.901,1.697c-2.124,1.784-2.707,2.555-2.998,2.458
			c-0.542-0.181-1.319-0.924-1.264-1.331c0.087-0.635,0.691-1.52,1.255-1.684C43.572,0.94,44.438,1.386,45.901,1.697z"/>
		<path fill-rule="evenodd" clip-rule="evenodd" fill="none" d="M53.3,45.198c-0.769-0.688-1.084-0.972-1.4-1.254
			c1.55-0.838,3.083-1.709,4.673-2.464c0.161-0.076,0.655,0.543,0.994,0.839C56.171,43.261,54.775,44.203,53.3,45.198z"/>
		<path fill-rule="evenodd" clip-rule="evenodd" fill="none" d="M228.745,45.184c-0.796-0.666-1.124-0.941-1.451-1.217
			c1.541-0.847,3.066-1.726,4.649-2.486c0.168-0.081,0.669,0.526,1.016,0.815C231.574,43.246,230.19,44.193,228.745,45.184z"/>
		<path fill-rule="evenodd" clip-rule="evenodd" fill="none" d="M27.551,38.244c-2.474,0.71-4.211,1.216-5.957,1.687
			c-0.093,0.025-0.262-0.231-0.396-0.356c1.462-1.308,2.923-2.615,4.385-3.923C25.991,36.187,26.398,36.723,27.551,38.244z"/>
		<path fill-rule="evenodd" clip-rule="evenodd" fill="none" d="M7.353,35.969c0.645,1.443,2.123,3.171,1.748,4.266
			c-0.638,1.854-2.444,3.312-3.76,4.934c-0.965-1.2-2.849-2.531-2.7-3.573c0.286-2.002,1.724-3.84,2.685-5.746
			C6,35.888,6.677,35.929,7.353,35.969z"/>
		<path fill-rule="evenodd" clip-rule="evenodd" fill="none" d="M102.207,40.646c-2.503,2.002-4.078,3.263-5.654,4.522
			c-0.979-1.219-3.008-2.822-2.729-3.584c0.708-1.923,2.452-3.468,3.782-5.164C98.781,37.498,99.956,38.577,102.207,40.646z"/>
		<path fill-rule="evenodd" clip-rule="evenodd" fill="none" d="M16.467,10.316c-2.151,0.107-3.621,0.181-5.089,0.253
			c1.337-2.802,2.677-5.604,4.015-8.405c0.788,2.42,1.629,4.825,2.278,7.28C17.734,9.68,16.59,10.23,16.467,10.316z"/>
		<path fill-rule="evenodd" clip-rule="evenodd" fill="none" d="M41.658,16.555c-0.186-0.942-0.497-1.786-0.347-1.876
			c1.507-0.914,3.075-1.738,4.674-2.483c0.149-0.069,0.63,0.567,0.957,0.874C45.533,14,44.124,14.929,41.658,16.555z"/>
		<path fill-rule="evenodd" clip-rule="evenodd" fill="none" d="M188.318,15.917c-0.768-0.692-1.081-0.976-1.396-1.26
			c1.551-0.838,3.087-1.706,4.675-2.462c0.161-0.075,0.655,0.546,0.993,0.842C191.195,13.978,189.798,14.919,188.318,15.917z"/>
		<path fill-rule="evenodd" clip-rule="evenodd" fill="none" d="M206.676,15.914c-0.771-0.689-1.087-0.969-1.403-1.254
			c1.55-0.838,3.084-1.708,4.674-2.465c0.161-0.077,0.653,0.544,0.994,0.84C209.546,13.977,208.151,14.918,206.676,15.914z"/>
		<path fill-rule="evenodd" clip-rule="evenodd" fill="none" d="M130.966,8.942c-2.532,0.727-4.261,1.232-6.001,1.703
			c-0.104,0.029-0.28-0.213-0.424-0.328c1.454-1.317,2.907-2.633,4.359-3.949C129.318,6.89,129.736,7.409,130.966,8.942z"/>
		<path fill-rule="evenodd" clip-rule="evenodd" fill="none" d="M84.632,8.939c-2.553,0.731-4.28,1.236-6.017,1.706
			c-0.107,0.029-0.288-0.206-0.433-0.317c1.449-1.32,2.897-2.641,4.348-3.96C82.952,6.885,83.374,7.4,84.632,8.939z"/>
		<path fill-rule="evenodd" clip-rule="evenodd" fill="none" d="M159.937,6.686c0.651,1.468,2.135,3.207,1.761,4.338
			c-0.602,1.831-2.425,3.264-3.732,4.861c-0.974-1.192-2.869-2.514-2.725-3.552c0.28-2.001,1.711-3.844,2.666-5.753
			C158.583,6.615,159.261,6.65,159.937,6.686z"/>
	</g>
</g>
</svg>
