<?xml version="1.0" encoding="utf-8"?>
<!-- Generator: Adobe Illustrator 16.0.0, SVG Export Plug-In . SVG Version: 6.00 Build 0)  -->
<!DOCTYPE svg PUBLIC "-//W3C//DTD SVG 1.1//EN" "http://www.w3.org/Graphics/SVG/1.1/DTD/svg11.dtd">
<svg version="1.1" name="tree" xmlns="http://www.w3.org/2000/svg" xmlns:xlink="http://www.w3.org/1999/xlink" x="0px" y="0px"
	 width="595.28px" height="841.89px" top="50px" left="-100px" viewBox="0 0 595.28 841.89" enable-background="new 0 0 595.28 841.89" xml:space="preserve">
<g>
	<g>
		<path fill="#010101" d="M432.524,122.771c-10.11,5.433-14.305,15.895-12.812,28.196c0.449,3.692-1.427,9.475-4.24,11.459
			c-17.61,12.418-35.584,24.357-53.877,35.742c-6.912,4.302-10.308,1.908-11.367-6.278c-0.362-2.796-0.184-5.674-0.113-8.513
			c0.394-15.329,1.532-30.683,1.027-45.981c-0.176-5.309,0.782-9.818,2.682-13.797c10.428-6.056,21.415-10.631,33.066-13.761
			c8.681,7.665,20.229,9.169,30.205,3.372c10.943-6.36,15.41-19.664,10.653-31.725c-4.325-10.967-16.291-17.343-28.319-15.085
			c-12.909,2.42-20.61,12.46-20.516,26.223c0.016,2.31-0.594,4.625-1.153,6.938c-10.562,3.285-20.662,7.753-30.243,13.358
			c-3.447,0.651-6.335,0.483-9.032-0.602c-4.186-4.434-8.375-8.867-12.562-13.301c9.135-15.63,8.825-27.028-1.004-36.55
			c-8.424-8.157-21.417-9.463-31.432-3.156c-10.179,6.408-14.359,19.288-9.971,30.707c4.792,12.465,12.749,16.036,33.588,14.087
			c6.24,6.604,12.479,13.211,18.718,19.815c3.929,7.262,6.773,14.993,7.199,23.672c0.236,4.78,0.281,9.577,0.212,14.375
			c-17.408-12.042-34.9-23.977-52.146-36.249c-19.403-13.811-38.283-31.7-41.11-56.438c3.954-0.941,7.724-2.699,11.048-5.482
			c2.844-2.38,5.004-5.014,6.552-7.794c2.16-1.987,3.646-4.83,3.798-8.557c0.654-16.042-9.112-28.449-23.393-34.455
			c-11.858-4.985-24.872-0.005-33.895,8.213c-0.479,0.308-0.846,0.689-1.151,1.107c-1.553,1.524-2.99,3.13-4.242,4.804
			c-1.876,2.507-2.191,5.653-1.474,8.62c-2.844,17.327,14.959,32.765,32.903,34.249c2.558,21.85,15.268,39.04,31.706,53.293
			c21.458,18.604,46.695,33.573,70.001,49.731c0.346,0.241,0.69,0.42,1.033,0.56c-0.301,6.084-0.729,12.165-1.195,18.226
			c-1.061,13.681-3.779,26.865-8.576,39.337c-3.624-2.664-6.392-6.337-8.05-10.592c8.1-5.949,9.571-16.804,5.517-25.534
			c-4.056-8.733-16.003-11.947-24.497-8.838c-7.336,2.686-11.692,9.424-11.925,16.567c-0.876,5.409,0.903,11.127,4.755,15.695
			c3.46,4.107,8.895,5.972,14.303,5.892c2.767,7.646,8.021,13.986,14.806,18.241c-2.543,4.978-5.46,9.821-8.798,14.512
			c-8.275,11.625-16.065,13.049-25.745,2.807c-11.86-12.548-22.646-26.159-33.323-39.761c-4.463-5.684-5.025-12.438-3.758-19.24
			c0.549-1.148,1.095-2.297,1.645-3.443c20.588-1.765,29.222-7.161,31.887-19.672c2.562-12.029-2.724-23.692-13.054-28.812
			c-4.073-2.018-8.652-2.874-13.122-2.636c-12.292-0.861-23.394,8.665-27.131,19.737c-3.338,9.89,1.967,20.575,10.426,25.763
			c-1.332,2.791-2.665,5.583-3.997,8.373c-2.379,0.009-5.099-1.087-7.695-3.355c-8.954-7.821-16.744-17.003-25.853-24.618
			c-7.169-5.994-11.443-12.768-13.172-20.394c2.749-12.896,5.501-25.792,8.249-38.688c1.067-0.542,2.273-1.012,3.706-1.394
			c15.939-4.231,22.633-23.066,14.062-37.224c-5.374-8.877-15.245-13.443-25.45-11.766c-11.375,1.869-18.889,9.067-21.261,20.365
			c-2.124,10.118,2.567,20.344,11.598,26.449c1.437,0.97,3.272,2.289,4.686,3.635c-2.862,13.422-5.724,26.844-8.586,40.266
			c-2.428-0.76-4.872-1.44-7.351-1.952c-2.394-17.207-8.444-24.873-20.417-26.658c-12.339-1.839-23.519,3.977-28.045,14.592
			c-4.696,11.012-1.532,23.484,7.779,30.667c10.502,8.1,20.002,6.738,37.631-6.597c3.448,0.665,6.835,1.637,10.171,2.878
			c9.748,8.704,19.569,17.503,29.5,26.231c27.458,24.13,48.995,52.556,64.87,85.094c-26.768-4.041-50.389-20.283-63.697-44.443
			c2.263-1.964,4.233-4.313,5.771-6.994c6.181-10.793,0.672-24.675-9.356-30.685c-2.736-1.64-5.574-2.512-8.431-2.799
			c-2.149-0.98-4.47-1.574-6.883-1.645c-8.772-0.261-16.029,4.572-19.794,12.089c-1.249,0.681-2.266,1.85-2.667,3.714
			c-0.021,0.1-0.032,0.201-0.053,0.302c-1.054,1.627-1.138,3.391-0.613,4.962c-0.457,10.762,4.939,20.551,15.322,25.319
			c5.169,2.374,10.657,2.704,15.755,1.45c16.095,29.938,47.09,49.632,80.74,51.914c2.749,5.983,6.034,11.976,7.22,18.19
			c-2.967,19.078-7.879,37.719-14.515,55.921c-1.535,4.207-0.161,7.542,2.423,9.629c0.525,1.072,1.254,1.997,1.861,2.132
			c15.551,3.427,31.226,5.652,46.776,0.163c1.314-0.465,2.97-2.915,3.044-4.353c1.262-1.999,1.771-4.547,0.959-7.52
			c-5.548-20.291-8.215-41.051-7.758-61.899c0.845-3.689,1.689-7.377,2.549-11.063c0.207-0.079,0.412-0.132,0.622-0.236
			c12.453-6.186,24.904-12.368,37.356-18.55c0.092,0.084,0.174,0.175,0.269,0.26c7.44,6.526,18.547,5.387,25.69-0.838
			c7.834-6.833,6.473-18.999,0.648-26.408c-6.612-8.415-19.922-7.107-27.215-0.754c-0.608,0.533-1.033,1.104-1.357,1.69
			c-0.39,0.357-0.76,0.758-1.086,1.251c-2.738,4.139-3.605,9.189-2.78,13.947c-0.137,0.058-0.272,0.086-0.41,0.154
			c-9.286,4.609-18.566,9.219-27.853,13.831c1.125-4.226,2.305-8.434,3.637-12.593c0.658-2.054,1.361-4.088,2.09-6.113
			c18.019-21.815,44.586-34.51,73.016-35.164c0.082-0.004,0.15-0.023,0.228-0.03c0.484,4.043,2.027,8.024,4.79,11.392
			c8.244,10.048,24.614,12.812,34.861,4.113c9.858-8.369,12.239-24.933,3.428-34.982c-9.386-10.703-25.812-10.957-36.216-1.711
			c-1.539,1.366-2.087,2.957-1.972,4.478c-1.22,1.414-2.234,2.98-3.02,4.67c-0.631-0.2-1.314-0.333-2.1-0.314
			c-21.251,0.488-41.19,6.883-58.218,18.113c2.701-3.806,5.705-7.448,9.099-10.882c19.047-19.269,41.316-33.773,65.34-45.744
			c3.853-1.921,9.13-2.355,13.467-1.677c11.99,1.876,23.085-2.528,28.493-12.402c5.18-9.456,3.545-22.465-3.793-30.141
			C455.289,119.279,442.643,117.333,432.524,122.771z"/>
	</g>
</g>
</svg>
