<?xml version="1.0" encoding="UTF-8"?>
<!DOCTYPE svg PUBLIC "-//W3C//DTD SVG 1.1//EN" "http://www.w3.org/Graphics/SVG/1.1/DTD/svg11.dtd">
<!-- Creator: CorelDRAW (Evaluation Version) -->
<svg xmlns="http://www.w3.org/2000/svg" xml:space="preserve" width="325mm" height="235mm" version="1.1" style="shape-rendering:geometricPrecision; text-rendering:geometricPrecision; image-rendering:optimizeQuality; fill-rule:evenodd; clip-rule:evenodd"
viewBox="0 0 32500 23500"
 xmlns:xlink="http://www.w3.org/1999/xlink">
 <defs>
  <style type="text/css">
   <![CDATA[
    .fil1 {fill:#2B2B2A}
    .fil0 {fill:#2B2B2A;fill-rule:nonzero}
   ]]>
  </style>
   <clipPath id="id0">
    <rect x="708.45" y="11631.42" width="7328.06" height="10868.57"/>
   </clipPath>
   <clipPath id="id1">
    <path d="M708.45 22499.99l7328.05 0 0 -10868.56 -7328.05 0 0 10868.56z"/>
   </clipPath>
   <clipPath id="id2">
    <rect x="708.45" y="11631.42" width="7328.06" height="10868.57"/>
   </clipPath>
   <clipPath id="id3">
    <rect x="24880.38" y="1000" width="7328.06" height="10868.57"/>
   </clipPath>
   <clipPath id="id4">
    <path d="M24880.38 11868.57l7328.05 0 0 -10868.56 -7328.05 0 0 10868.56z"/>
   </clipPath>
   <clipPath id="id5">
    <rect x="24880.38" y="1000" width="7328.06" height="10868.57"/>
   </clipPath>
 </defs>
 <g id="Layer_x0020_1">
  <metadata id="CorelCorpID_0Corel-Layer"/>
  <g id="_105553389082176">
   <path class="fil0" d="M13248.57 7934.07c20.34,-373.55 7.69,-749.13 -37.56,-1120.47l612.95 0c144.58,0 254.57,72.16 329.95,216.74 70.87,142.44 71.3,264.69 -66,367.77 -100.6,75.39 -241.96,113.2 -424.37,113.2l-47.21 0 0 85.03c0,94.16 -6.16,203.61 -18.77,328.35 -56.26,-6.59 -113.36,-8.28 -169.81,-3.23 -62.76,0 -122.58,4.3 -179.18,12.61zm358.37 -592.56l47.21 0c119.37,0 179.2,-40.77 179.2,-122.59 -6.44,-75.37 -59.83,-113.2 -160.41,-113.2 -31.38,0 -62.77,3.21 -94.15,9.66 18.77,50.17 28.15,125.54 28.15,226.13zm1113.51 -227.74c82.37,-10.58 168.39,-12.4 250,4.57 -7.51,92.26 -10.99,200.37 -10.99,324.57 0,144.57 13.9,346.58 76.99,474.8 -8.05,-0.54 -16.63,-0.8 -26.03,-0.8 -36.21,0 -87.45,2.4 -153.97,6.97 -91.75,5.89 -149.68,8.59 -173.82,8.59 16.36,-33.53 24.41,-75.39 24.41,-125.55 -37.3,49.09 -71.09,82.62 -102.21,100.6 -92.57,51.05 -208.81,45.14 -296.15,-14.22 -116.71,-79.76 -153.16,-242.54 -153.16,-375.55 0,-129.02 29.51,-228.02 88.78,-297.21 60.1,-70.28 124.74,-105.16 193.95,-105.16 43.32,-4.95 86.43,1.85 127.42,16.36 43.44,15.82 91.48,55.26 143.77,118.56 4.84,-67.05 8.32,-112.39 11.01,-136.53zm-92.01 422.76c0,-48.3 -9.39,-84.23 -28.18,-107.57 -19.03,-23.6 -43.44,-35.42 -74.02,-35.42 -24.41,0 -45.88,11.55 -63.58,34.62 -17.16,22.53 -26.01,57.67 -26.01,105.95 0,54.99 9.11,94.15 26.81,117.22 36.71,47.29 100.62,45.06 137.61,-0.8 18.25,-23.07 27.37,-61.16 27.37,-114zm454.42 -421.15c125.54,0 226.14,6.17 301.77,18.78l0 113.2c24.95,-107.04 78.6,-160.41 160.16,-160.41 43.98,0 100.58,18.77 169.79,56.6 -37.83,50.42 -72.42,122.58 -103.81,217 -175,-45.19 -226.14,76.83 -226.14,235.79l0 66c12.35,162.28 18.79,246.52 18.79,252.96 -83.22,16.63 -202.32,32.38 -283,0 34.4,-271.83 19.71,-531.53 -37.56,-799.92zm725.88 0c92.49,-15.92 190.64,-17.81 283,0 -12.08,77.52 -17.97,167.93 -17.97,270.94 0,178.83 14.51,359.03 32.99,536.76 -103.66,17.81 -225.99,12.36 -330.21,0 24.14,-289.18 36.22,-506.47 36.22,-652.12 0,-51.92 -2.27,-103.7 -4.03,-155.58zm368.84 -4.82c36.79,6.83 87.13,2.16 124.2,-1.63l196.36 0 0 121c69.2,-87.99 150.76,-131.99 245.18,-131.99l9.38 0c94.43,0 157.2,64.38 188.58,193.42 87.99,-129.04 185.64,-193.42 292.41,-193.42 18.77,0 37.83,3.21 56.6,9.39 113.19,31.38 169.81,127.41 169.81,287.84l0 112.92c0,44 3.21,100.6 9.38,169.81 6.18,108.09 9.39,186.96 9.39,237.4 -104.95,26.35 -206.03,23.39 -311.18,0 0,-50.44 6.17,-123.13 18.79,-218.36 6.44,-100.6 9.38,-173.02 9.38,-217.02 0,-81.81 -28.17,-122.58 -84.77,-122.58l-28.15 0c-75.67,18.77 -113.23,72.16 -113.23,160.41 0,68.94 15.56,201.19 47.21,395.93 -110.68,10.29 -219.41,9.4 -330.2,9.4 0,-50.17 3.21,-122.6 9.39,-216.75 12.59,-94.43 19.04,-166.58 19.04,-217.01 0,-88 -22.27,-131.98 -66.25,-131.98l-18.79 0c-62.77,12.6 -100.58,65.98 -113.2,160.41l0 413.38c-93.67,-13.72 -188.97,-12.05 -282.73,0 6.17,-93.36 9.38,-180.8 9.38,-262.63 0,-226.39 -21.98,-412.29 -65.98,-557.94zm1945.09 3.21c82.36,-10.58 168.38,-12.4 249.99,4.57 -7.51,92.26 -10.99,200.37 -10.99,324.57 0,144.57 13.9,346.58 76.99,474.8 -8.04,-0.54 -16.62,-0.8 -26.03,-0.8 -36.2,0 -87.45,2.4 -153.96,6.97 -91.75,5.89 -149.69,8.59 -173.83,8.59 16.37,-33.53 24.41,-75.39 24.41,-125.55 -37.29,49.09 -71.08,82.62 -102.2,100.6 -92.57,51.05 -208.81,45.14 -296.15,-14.22 -116.71,-79.76 -153.17,-242.54 -153.17,-375.55 0,-129.02 29.52,-228.02 88.79,-297.21 60.09,-70.28 124.74,-105.16 193.95,-105.16 43.32,-4.95 86.43,1.85 127.41,16.36 43.45,15.82 91.48,55.26 143.78,118.56 4.84,-67.05 8.32,-112.39 11.01,-136.53zm-92.02 422.76c0,-48.3 -9.38,-84.23 -28.17,-107.57 -19.04,-23.6 -43.45,-35.42 -74.03,-35.42 -24.41,0 -45.87,11.55 -63.57,34.62 -17.17,22.53 -26.02,57.67 -26.02,105.95 0,54.99 9.12,94.15 26.82,117.22 36.7,47.29 100.62,45.06 137.6,-0.8 18.26,-23.07 27.37,-61.16 27.37,-114zm1321.94 -721.59c-47.21,237.93 -70.82,447.98 -70.82,630.38 0,182.41 23.61,339.6 70.82,471.59 -31.39,0 -87.99,3.21 -169.81,9.38l-179.18 0c17.11,-28.23 27,-61.95 21.18,-94.96 -59.15,72.14 -131.07,126.35 -228.55,126.35 -63.04,0 -116.4,-18.77 -160.4,-56.6 -133.11,-83.29 -150.76,-256.45 -150.76,-399.16 0,-125.81 28.18,-223.18 84.77,-292.39 62.78,-69.21 128.76,-103.81 197.97,-103.81 81.81,0 169.79,53.66 264.21,160.41l0 -113.2c0,-144.58 -9.65,-257.25 -28.42,-337.99l348.99 0zm-405.59 721.59c0,-50.44 -9.4,-85.03 -28.17,-103.82 -19.04,-25.21 -44,-37.54 -75.65,-37.54 -24.95,0 -43.99,12.33 -56.33,37.54 -19.04,18.79 -28.43,53.38 -28.43,103.82 0,50.16 9.39,87.99 28.43,113.2 37.88,50.28 93.98,49.8 131.98,0 18.77,-25.21 28.17,-63.04 28.17,-113.2zm-4500.15 2500.04c0,11.54 -2.98,28.32 -8.58,50.3 -6.69,27.94 -10.79,44.71 -12.29,50.67 -1.86,26.09 -7.07,64.82 -15.28,115.12 -7.53,29.26 -47.69,18.49 -69.67,15.29 -89.41,-13.04 -228.01,-19.75 -415.43,-19.75 -159.95,0 -319.94,8.94 -479.88,8.94 -24.24,0 -36.15,-10.44 -36.15,-31.67 0,-244.82 26.83,-489.93 26.83,-734.75 0,-82.7 -4.48,-237.32 -13.42,-463.85 -1.5,-58.13 -5.58,-144.94 -12.29,-260.81 -1.68,-22.86 -3.94,-40.25 27.19,-40.25 152.83,0 305.79,8.58 458.67,8.58 146.04,0 292.15,-8.58 438.14,-8.58 34.3,0 52.93,10.43 55.53,31.67 15.27,95.38 23.09,155 23.09,178.1 0,16.76 -7.82,24.97 -23.84,24.97 -187.94,0 -376.11,-20.13 -564.1,-20.13 -59.61,0 -97.24,8.21 -112.89,24.21 -15.65,16.02 -23.48,55.53 -23.48,119.24l0 162.82c0,44.71 1.12,70.42 3.36,77.86 11.31,40.6 60.55,34.33 93.53,32.8 140.35,0 280.4,-1.36 420.64,-7.83 44.34,-1.48 96.87,-5.21 157.23,-11.17 15.27,-1.5 22.73,5.21 22.73,19.75 0,71.98 -16.4,144.03 -16.4,216.09 0,13.42 -10.79,19.75 -32.77,19.75 -8.59,0 -40.99,-2.62 -96.89,-7.45 -40.61,-4.48 -132.27,-6.71 -274.58,-6.71 -119.98,0 -195.99,1.5 -227.66,4.48 -29.06,1.85 -45.83,17.12 -50.3,45.44 0.75,-5.21 1.11,22.73 1.11,83.47l0 160.96c0,75.26 11.56,122.2 35.03,141.21 17.89,15.27 63.34,22.73 135.99,22.73l119.98 -1.13c51.05,0 193.75,-8.94 428.85,-26.83 23.14,-1.57 38,-5.37 38,26.46zm1706.07 193.38c0,18.25 -8.94,27.19 -27.19,27.19 -39.45,0 -79.04,-6.71 -118.49,-6.71 -39.83,0 -79.8,6.71 -119.6,6.71 -18.26,0 -27.2,-11.92 -27.2,-36.15 0,-277.36 17.13,-554.6 17.13,-831.97 0,-13.79 -2.6,-20.5 -8.56,-20.5 -6.71,0 -11.55,4.1 -15.28,11.92 -37.25,79.36 -124.81,291.74 -263.03,636.38 -22.36,66.32 -54.78,149.04 -96.89,248.15 -5.21,8.19 -31.67,12.3 -78.99,12.3 -68.93,0 -106.93,-6.34 -114.37,-18.63 -24.59,-58.88 -59.99,-141.6 -106.2,-247.78 -60.34,-143.81 -153.5,-358.43 -279.06,-643.45 -2.23,-5.22 -6.71,-10.06 -14.15,-15.29 -5.96,4.48 -8.58,12.31 -8.58,23.86 0,281.68 9.69,563.33 9.69,845.01 0,23.86 -8.94,36.15 -27.2,36.15 -37.82,0 -75.83,-6.71 -113.64,-6.71 -38.97,0 -78.02,6.71 -116.99,6.71 -18.25,0 -27.19,-7.08 -27.19,-20.86 0,-241.87 22.35,-483.93 22.35,-725.8 0,-251.44 -22.35,-503.04 -22.35,-754.48 0,-13.8 8.19,-21.61 24.96,-23.86 98.74,-13.04 173.25,-19.73 223.18,-19.73 7.45,0 17.5,14.9 30.92,44.69 176.6,387.12 328.25,732.89 455.31,1036.92 29.79,71.53 47.67,106.93 53.65,106.93 7.44,0 23.09,-29.07 46.94,-87.18 99.48,-235.47 237.33,-584.96 413.19,-1048.83 11.56,-29.07 23.85,-43.59 37.27,-43.59 73.71,0 147.4,8.56 221.31,8.56 17.89,0 26.83,8.94 26.83,26.46 0,251.33 -15.65,502.77 -15.65,754.11 0,239.78 17.88,479.7 17.88,719.47zm1568.98 18.25c0,5.96 -8.58,8.94 -26.08,8.94 -40.49,0 -80.99,-4.48 -121.48,-4.48 -41.59,0 -83.21,4.48 -124.81,4.48 -20.1,0 -45.82,-55.13 -77.11,-165.42 -31.3,-110.28 -62.97,-166.19 -95.39,-167.67 -26.46,-1.5 -95.39,-2.25 -207.55,-2.25l-169.89 0c-118.12,0 -185.55,0.75 -202.32,2.25 -25.71,2.23 -54.78,58.49 -87.18,168.4 -32.42,109.91 -57.38,164.69 -74.89,164.69l-244.43 0c-14.52,0 -21.98,-5.21 -21.98,-16.02 0,-7.82 5.21,-25.34 15.65,-52.16l272.37 -729.53c23.09,-58.49 92.76,-228.01 209.01,-508.2 20.88,-46.57 49.19,-116.62 84.57,-210.15 8.96,-27.94 18.27,-41.72 28.69,-41.72 41.13,0 82.49,10.8 123.33,10.8 39.81,0 79.6,-11.92 119.25,-11.92 6.33,0 15.64,13.04 27.56,39.13 16.78,40.98 100.98,261.18 252.25,660.59 213.86,561.85 320.43,845.01 320.43,850.24zm-502.63 -606.2c-77.09,-201.16 -150.77,-403.88 -226.92,-605.44 -150.9,384.13 -226.16,585.7 -226.16,603.58 0,24.96 27.21,39.13 81.97,43.59 2.98,0.75 38.01,1.12 105.83,1.12l111.02 0c102.86,0 154.26,-14.16 154.26,-42.85zm1981.05 -158.72c0,204.55 -58.12,381.16 -174.74,530.56 -126.31,162.08 -288.76,243.3 -486.6,243.3 -113.84,0 -227.68,-8.56 -341.66,-8.56 -103.06,0 -205.95,8.56 -308.87,8.56 -18.25,0 -27.21,-8.94 -27.21,-27.19 0,-239.77 17.89,-479.69 17.89,-719.47 0,-253.94 -17.89,-508 -17.89,-761.94 0,-15.28 9.31,-22.73 28.31,-22.73 80.49,0 160.96,2.24 241.45,2.24 76.49,0 153,-2.24 229.51,-2.24 252.62,0 440.77,47.69 564.48,143.08 183.38,140.42 275.33,388.22 275.33,614.39zm-268.27 0c0,-157.23 -44.71,-285.41 -134.12,-384.51 -93.16,-102.47 -217.22,-153.87 -372.97,-153.87 -128.54,0 -180.32,-0.75 -155.73,-2.25 -84.95,4.48 -127.81,20.13 -127.81,46.96 0,167.81 -7.44,335.55 -7.44,503.36 0,166.06 7.44,332.07 7.44,498.14 0,27.58 43.97,43.6 131.16,48.06 -11.91,-0.75 41.36,-1.1 159.09,-1.1 153.29,0 262.65,-23.55 364.03,-147.56 90.91,-110.64 136.35,-246.27 136.35,-407.23zm-6893.29 1606.01l84.77 0c94.43,0 204.41,-3.75 330.22,-10.99 150.75,-14.76 279.77,-22 386.54,-22l65.99 0 0 267.18 -537.57 0 9.39 179.19 0 -9.4c56.61,0 110.25,-6.43 160.42,-19.04 50.42,-6.17 103.81,-9.39 160.41,-9.39l0 245.18c-144.58,0 -254.57,-3.23 -330.22,-9.38l0 235.79c327,-33.55 509.41,-50.44 546.97,-50.44l0 301.77c-154.02,0 -307.91,1.43 -461.93,3.23 -100.6,6.44 -185.64,9.39 -254.56,9.39 -75.66,0 -135.2,-2.95 -179.2,-9.39 31.39,-301.77 46.95,-550.18 46.95,-744.93 0,-144.58 -9.39,-263.68 -28.18,-356.77zm1823.3 -8.05c-47.21,237.94 -70.82,447.98 -70.82,630.39 0,182.4 23.61,339.6 70.82,471.58 -31.39,0 -87.99,3.21 -169.81,9.39l-179.18 0c17.11,-28.23 27,-61.95 21.18,-94.96 -59.15,72.13 -131.07,126.34 -228.55,126.34 -63.04,0 -116.4,-18.77 -160.4,-56.6 -133.11,-83.29 -150.76,-256.45 -150.76,-399.16 0,-125.8 28.18,-223.17 84.77,-292.38 62.78,-69.22 128.76,-103.81 197.97,-103.81 81.81,0 169.79,53.65 264.21,160.4l0 -113.19c0,-144.58 -9.65,-257.26 -28.42,-338l348.99 0zm-405.59 721.6c0,-50.44 -9.4,-85.04 -28.17,-103.83 -19.04,-25.21 -44,-37.54 -75.65,-37.54 -24.95,0 -43.98,12.33 -56.33,37.54 -19.04,18.79 -28.43,53.39 -28.43,103.83 0,50.15 9.39,87.98 28.43,113.19 37.88,50.28 93.98,49.8 131.98,0 18.77,-25.21 28.17,-63.04 28.17,-113.19zm1284.09 361.58c-84.86,42.16 -177.64,32.33 -263.95,0l0 -132.23c-75.65,100.58 -160.4,151.02 -254.83,151.02 -18.78,0 -40.78,-3.23 -66,-9.38 -125.8,-37.83 -188.58,-135.22 -188.58,-292.39 0,-138.43 -16.62,-299.64 -50.15,-484.2 44,-16.63 89.05,-25.21 135.19,-25.21 56.33,0 122.6,8.58 197.97,25.21l0 408.81c0,87.98 25.21,131.98 75.38,131.98l28.43 0c68.94,-19.05 103.56,-78.59 103.56,-179.19 0,-44 -2.97,-170.88 -9.41,-380.37 112.73,5.48 225.54,4.1 338,-5.64 -30.32,119.1 -45.61,382.8 -45.61,791.59zm556.36 -1065.74c-9.55,103.82 -15.83,206.88 -15.83,311.17l70.82 0c37.56,-6.17 66,-9.38 84.77,-9.38 -25.21,123.65 -37.56,197.16 -37.56,220.77l0 5.62 -122.58 0 -11.01 273.35c6.17,63.04 27.64,94.42 64.4,94.42 26.01,0 55.52,-6.44 87.98,-19.06 20.16,60.83 40.41,144.49 18.77,207.64 -140.51,15.33 -348.17,32.83 -414.99,-122.6 -12.59,-31.38 -18.77,-122.58 -18.77,-273.6l0 -160.15 -113.19 0c-25.21,-63.04 -37.56,-135.2 -37.56,-217.01l160.14 0 0 -150.75c6.44,-31.65 101.13,-85.04 284.61,-160.42zm792.95 281.39c82.36,-10.58 168.38,-12.4 249.99,4.57 -7.51,92.27 -10.99,200.37 -10.99,324.58 0,144.56 13.9,346.58 76.99,474.79 -8.05,-0.53 -16.63,-0.8 -26.03,-0.8 -36.21,0 -87.45,2.41 -153.97,6.98 -91.74,5.88 -149.68,8.58 -173.82,8.58 16.36,-33.53 24.41,-75.39 24.41,-125.54 -37.29,49.08 -71.09,82.61 -102.21,100.6 -92.56,51.04 -208.81,45.14 -296.15,-14.23 -116.71,-79.75 -153.16,-242.53 -153.16,-375.55 0,-129.02 29.51,-228.01 88.78,-297.21 60.1,-70.28 124.74,-105.16 193.95,-105.16 43.33,-4.94 86.43,1.85 127.42,16.36 43.45,15.83 91.48,55.26 143.78,118.57 4.83,-67.06 8.31,-112.4 11.01,-136.54zm-92.02 422.77c0,-48.3 -9.38,-84.24 -28.17,-107.57 -19.04,-23.61 -43.45,-35.42 -74.03,-35.42 -24.41,0 -45.88,11.54 -63.58,34.61 -17.16,22.54 -26.01,57.67 -26.01,105.95 0,54.99 9.12,94.16 26.82,117.23 36.7,47.28 100.61,45.05 137.6,-0.8 18.25,-23.07 27.37,-61.17 27.37,-114zm899.17 -704.16c-9.55,103.82 -15.83,206.88 -15.83,311.17l70.82 0c37.56,-6.17 66,-9.38 84.77,-9.38 -25.21,123.65 -37.56,197.16 -37.56,220.77l0 5.62 -122.58 0 -11.01 273.35c6.18,63.04 27.64,94.42 64.4,94.42 26.01,0 55.52,-6.44 87.98,-19.06 20.16,60.83 40.41,144.49 18.77,207.64 -140.51,15.33 -348.17,32.83 -414.99,-122.6 -12.59,-31.38 -18.77,-122.58 -18.77,-273.6l0 -160.15 -113.19 0c-25.21,-63.04 -37.56,-135.2 -37.56,-217.01l160.14 0 0 -150.75c6.44,-31.65 101.13,-85.04 284.61,-160.42zm792.96 281.39c82.37,-10.58 168.39,-12.4 250,4.57 -7.51,92.27 -10.99,200.37 -10.99,324.58 0,144.56 13.9,346.58 76.99,474.79 -8.05,-0.53 -16.63,-0.8 -26.03,-0.8 -36.21,0 -87.45,2.41 -153.97,6.98 -91.75,5.88 -149.68,8.58 -173.82,8.58 16.36,-33.53 24.41,-75.39 24.41,-125.54 -37.3,49.08 -71.09,82.61 -102.21,100.6 -92.57,51.04 -208.81,45.14 -296.15,-14.23 -116.71,-79.75 -153.16,-242.53 -153.16,-375.55 0,-129.02 29.51,-228.01 88.78,-297.21 60.1,-70.28 124.74,-105.16 193.95,-105.16 43.33,-4.94 86.43,1.85 127.42,16.36 43.44,15.83 91.48,55.26 143.77,118.57 4.84,-67.06 8.32,-112.4 11.01,-136.54zm-92.01 422.77c0,-48.3 -9.39,-84.24 -28.18,-107.57 -19.03,-23.61 -43.44,-35.42 -74.02,-35.42 -24.41,0 -45.88,11.54 -63.58,34.61 -17.16,22.54 -26.01,57.67 -26.01,105.95 0,54.99 9.11,94.16 26.81,117.23 36.71,47.28 100.62,45.05 137.61,-0.8 18.25,-23.07 27.37,-61.17 27.37,-114zm491.98 -722.93c93.74,-13.74 189.18,-11.98 283,0 0,37.55 -3.23,106.77 -9.4,207.35 -12.6,98.4 -9.39,202.31 -9.39,301.79 111.86,-100.6 177.59,-169.81 196.36,-207.37 44,7.24 107.31,11.01 190.19,11.01 56.59,0 119.36,-3.77 188.58,-11.01l-335.57 318.15 338.8 487.93c-210.58,7.51 -325.4,11.01 -344.17,11.01 -73.5,-170.61 -148.35,-296.96 -224.8,-378.77l0 240.61c6.17,74.32 9.4,120.99 9.4,139.77 -61.97,-10.46 -119.39,-15.56 -173.02,-15.56 -49.16,0 -98.33,1.6 -147.54,1.6 31.38,-115.33 46.94,-352.2 46.94,-710.58 0,-119.37 -2.94,-251.36 -9.38,-395.93zm793.19 883.34c73.23,-17.44 159.61,-26.82 259.13,-28.45 15.08,50.11 50.98,69.22 100.6,69.22 40.84,0 98.44,-35.64 98.44,-79.4 0,-50.95 -21.55,-68.88 -73.23,-74.57l-106.77 0c-142.97,-11.01 -218.61,-74.05 -226.39,-188.58l0 -37.83c31.39,-175.96 138.41,-263.96 320.55,-263.96 182.41,0 301.77,75.38 358.39,226.14 -119.39,25.21 -197.97,37.82 -235.79,37.82 -10.96,0 -20.42,-0.01 -28.18,-9.38 -22.84,-47.21 -61.5,-69.68 -113.19,-61.43 -38.33,17.16 -51.55,51.7 -36.22,89.59 16.36,27.9 91.21,49.9 224.8,66 144.58,19.03 217,91.19 217,217 0,231.49 -192,283 -386.81,283 -226.12,0 -350.33,-81.81 -372.33,-245.17zm1353.84 -77.26c87.18,-5.11 189.12,-9.66 306.61,-13.15 -10.99,221.58 -146.72,335.31 -407.19,340.95 -255.11,0 -393.52,-116.42 -415.52,-349.8l0 -74.57c0,-199.57 82.34,-335.58 247.32,-407.74 72.85,-28.76 134.83,-37.01 212.18,-37.01 185.64,20.38 314.66,160.94 387.62,421.95l-557.94 99.79c5.08,50.43 26.28,83.15 63.57,98.17 19.84,5.37 35.13,8.05 45.59,8.05 48.83,-5.91 88,-34.6 117.76,-86.64zm-46.39 -229.35c-19.86,-53.93 -39.43,-86.92 -58.76,-98.98 -35.4,-22.23 -68.01,-18 -103.81,2.41 -58.68,33.38 -52.78,83.26 -44.8,140.57l207.37 -44zm-10630.75 1249.77c-72.66,0 -118.5,35.78 -137.48,107.31l-358.07 1436.32 -115.87 0 -338.32 -1438.55c-17.5,-70.05 -52.15,-105.08 -104.68,-105.08l0 -65.2 565.58 0 0 65.2c-61.47,0 -92.03,19 -92.03,57.01 0,2.98 5.96,33.53 17.52,91.66l152.75 746.66 179.21 -726.91c5.96,-24.96 8.58,-61.86 8.58,-111.41 0,-38.01 -49.19,-57.01 -148.29,-57.01l0 -65.2 371.1 0 0 65.2zm1111.04 1543.63l-552.17 0 0 -52.53c32.04,0 53.27,-6.33 63.34,-19.38 0,0 4.48,-14.16 13.04,-41.73 5.96,-19 -1.48,-69.68 -21.98,-152.75l-71.91 -320.81 -242.18 0 -67.82 342.79c-14.52,75.64 -21.6,120.71 -21.6,135.25 0,38 45.08,56.63 135.24,56.63l0 52.53 -307.75 0 0 -52.53c61.11,0 101.72,-52.17 122.21,-157.23l251.11 -1324.93 246.66 -106.93 366.64 1486.62c16.02,68.55 45.07,102.47 87.17,102.47l0 52.53zm-589.43 -644.19l-115.5 -478.05 -98.36 478.05 213.86 0zm1678.88 -899.44c-29.07,0 -57.39,11.92 -84.95,35.03 -27.57,23.48 -41.74,51.79 -41.74,85.32l0 1440.78 -111.03 0 -578.62 -1207.16 0 1025.72c0,74.51 48.81,111.41 146.06,111.41l0 50.3 -353.59 0 0 -50.3c90.17,0 135.24,-37.63 135.24,-113.26l0 -1257.49c0,-80.11 -43.58,-120.35 -130.76,-120.35l0 -65.2 397.17 0 425.86 892.71 0 -707.16c0,-80.11 -46.57,-120.35 -139.71,-120.35l0 -65.2 336.07 0 0 65.2z"/>
   <path class="fil0" d="M12906.4 14450.04l-552.18 0 0 -52.53c32.05,0 53.28,-6.33 63.34,-19.38 0,0 4.48,-14.16 13.05,-41.73 5.96,-19 -1.48,-69.68 -21.99,-152.75l-71.9 -320.81 -242.18 0 -67.82 342.79c-14.53,75.64 -21.61,120.71 -21.61,135.25 0,38 45.09,56.63 135.25,56.63l0 52.53 -307.75 0 0 -52.53c61.11,0 101.72,-52.17 122.2,-157.23l251.12 -1324.93 246.66 -106.93 366.63 1486.62c16.02,68.55 45.07,102.47 87.18,102.47l0 52.53zm-589.43 -644.19l-115.5 -478.05 -98.37 478.05 213.87 0zm1713.9 -899.44c-72.66,0 -118.5,35.78 -137.48,107.31l-358.07 1436.32 -115.87 0 -338.32 -1438.55c-17.5,-70.05 -52.15,-105.08 -104.68,-105.08l0 -65.2 565.58 0 0 65.2c-61.47,0 -92.03,19 -92.03,57.01 0,2.98 5.96,33.53 17.52,91.66l152.75 746.66 179.21 -726.91c5.96,-24.96 8.59,-61.86 8.59,-111.41 0,-38.01 -49.2,-57.01 -148.3,-57.01l0 -65.2 371.1 0 0 65.2zm1111.05 1543.63l-552.18 0 0 -52.53c32.04,0 53.28,-6.33 63.34,-19.38 0,0 4.48,-14.16 13.04,-41.73 5.96,-19 -1.48,-69.68 -21.98,-152.75l-71.91 -320.81 -242.18 0 -67.82 342.79c-14.52,75.64 -21.6,120.71 -21.6,135.25 0,38 45.09,56.63 135.24,56.63l0 52.53 -307.75 0 0 -52.53c61.11,0 101.72,-52.17 122.21,-157.23l251.12 -1324.93 246.65 -106.93 366.64 1486.62c16.02,68.55 45.07,102.47 87.18,102.47l0 52.53zm-589.44 -644.19l-115.49 -478.05 -98.37 478.05 213.86 0zm1678.88 -899.44c-29.07,0 -57.38,11.92 -84.95,35.03 -27.57,23.48 -41.74,51.79 -41.74,85.32l0 1440.78 -111.03 0 -578.62 -1207.16 0 1025.72c0,74.51 48.82,111.41 146.06,111.41l0 50.3 -353.59 0 0 -50.3c90.18,0 135.25,-37.63 135.25,-113.26l0 -1257.49c0,-80.11 -43.59,-120.35 -130.77,-120.35l0 -65.2 397.18 0 425.85 892.71 0 -707.16c0,-80.11 -46.57,-120.35 -139.71,-120.35l0 -65.2 336.07 0 0 65.2zm1126.71 1063.38l-106.93 482.48 -928.12 0 0 -63.34c67.07,0 100.59,-38.74 100.59,-115.87l0 -1253.01c0,-42.09 -6.71,-72.65 -19.75,-91.66 -10.06,-16.02 -36.88,-23.83 -80.84,-23.83l0 -67.82 912.85 0 76.38 462.75 -76.38 10.81c-61.11,-130.77 -109.91,-220.95 -146.44,-270.5 -68.57,-90.16 -144.95,-135.24 -229.15,-135.24 -52.53,0 -78.62,38.38 -78.62,115.49l0 536.91 54.41 0c49.55,0 90.16,-18.63 122.2,-56.63 43.97,-48.07 65.57,-123.71 65.57,-226.91l102.87 0 0 637.48 -107.33 0c0,-106.18 -21.61,-184.04 -65.21,-233.61 -30.55,-38.01 -70.78,-56.99 -120.33,-56.99l-52.18 0 0 652.76c0,77.13 27.57,115.87 83.1,115.87l61.09 0c110.29,0 226.19,-144.19 346.9,-432.19l85.32 13.05zm1152.41 -1065.23c-62.59,0 -93.89,33.9 -93.89,102.45l0 1292.51c0,37.63 5.96,61.84 17.51,71.91 11.93,8.56 34.29,13.04 67.82,13.04l0 63.34 -519.39 0 0 -63.34c50.68,0 76.39,-28.32 76.39,-84.95l0 -729.16 -163.94 892.72 -69.68 0 -244.8 -1113.29 0 967.23c0,45.09 36.52,67.45 109.18,67.45l0 63.34 -266.03 0 0 -63.34c52.17,0 78.24,-22.36 78.24,-67.45l0 -1325.28c0,-58.12 -26.82,-87.18 -80.48,-87.18l0 -63.35 399.41 0 159.48 739.96 135.25 -739.96 394.93 0 0 63.35zm1102.49 1545.48l-552.18 0 0 -52.53c32.04,0 53.28,-6.33 63.34,-19.38 0,0 4.48,-14.16 13.04,-41.73 5.96,-19 -1.48,-69.68 -21.98,-152.75l-71.91 -320.81 -242.18 0 -67.82 342.79c-14.52,75.64 -21.6,120.71 -21.6,135.25 0,38 45.08,56.63 135.24,56.63l0 52.53 -307.75 0 0 -52.53c61.11,0 101.72,-52.17 122.21,-157.23l251.12 -1324.93 246.65 -106.93 366.64 1486.62c16.02,68.55 45.07,102.47 87.18,102.47l0 52.53zm-589.44 -644.19l-115.49 -478.05 -98.37 478.05 213.86 0zm1678.88 -499.65l-61.11 17.52c-39.11,-84.58 -84.2,-166.92 -135.25,-247.03 -58.12,-94.27 -98.35,-141.59 -119.98,-141.59 -8.94,0 -13.4,22.36 -13.4,67.45l0 1266.42c0,78.62 58.49,117.73 174.74,117.73l0 63.34 -707.16 0 0 -63.34c116.24,0 174.73,-38.38 174.73,-115.5l0 -1261.94c0,-51.05 0,-72.28 0,-63.34 0,-8.94 -3.73,-13.05 -11.17,-13.05 -36.15,0 -123.7,127.79 -261.93,384.14l-56.63 -8.94 78.61 -466.86 859.93 0 78.62 464.99zm1126.69 663.59l-106.93 482.48 -928.1 0 0 -63.34c67.07,0 100.59,-38.74 100.59,-115.87l0 -1253.01c0,-42.09 -6.71,-72.65 -19.75,-91.66 -10.06,-16.02 -36.88,-23.83 -80.84,-23.83l0 -67.82 912.83 0 76.38 462.75 -76.38 10.81c-61.11,-130.77 -109.91,-220.95 -146.44,-270.5 -68.55,-90.16 -144.93,-135.24 -229.13,-135.24 -52.53,0 -78.62,38.38 -78.62,115.49l0 536.91 54.41 0c49.54,0 90.15,-18.63 122.2,-56.63 43.97,-48.07 65.57,-123.71 65.57,-226.91l102.85 0 0 637.48 -107.31 0c0,-106.18 -21.61,-184.04 -65.21,-233.61 -30.55,-38.01 -70.79,-56.99 -120.33,-56.99l-52.18 0 0 652.76c0,77.13 27.57,115.87 83.1,115.87l61.09 0c110.29,0 226.17,-144.19 346.88,-432.19l85.32 13.05zm1139.37 480.25l-495.53 0 0 -65.57c30.55,0 45.82,-17.52 45.82,-52.17 0,-11.92 -11.54,-50.3 -34.65,-115.87l-133.39 -360.29 0 423.63c0,69.67 28.32,104.7 85.32,104.7l0 65.57 -545.82 0 0 -65.57c65.57,0 97.99,-35.03 97.99,-104.7l0 -1274.99c0,-46.57 -7.09,-74.89 -21.63,-84.95 -14.52,-8.94 -40.23,-13.42 -76.36,-13.42l0 -65.2 558.87 0 0 65.2c-48.07,0 -76.39,4.48 -85.33,13.42 -8.56,8.56 -13.04,36.88 -13.04,84.95l0 478.02 286.16 -464.98c14.52,-23.1 21.61,-44.34 21.61,-63.34 0,-24.59 -16.02,-39.86 -48.07,-45.82 -10.06,-1.5 -42.84,-2.25 -97.99,-2.25l0 -65.2 401.66 0 0 65.2c-86.08,0 -155,40.99 -207.55,122.21l-185.55 296.95 338.32 947.49c8.94,24.96 22.73,48.07 41.73,70.05 23.09,27.57 45.82,41.36 67.43,41.36l0 65.57zm1026.1 -397.18c0,120.72 -39.11,223.18 -117.73,307.75 -84.57,87.2 -188.52,130.79 -312.23,130.79 -36.5,0 -85.32,-10.06 -146.43,-30.55 -59.61,-20.12 -100.96,-30.56 -124.44,-30.56 -11.54,0 -26.08,5.23 -43.59,15.27 -23.1,10.44 -50.3,26.46 -80.86,48.07l-71.91 -556.64 65.59 -15.27c32.03,148.29 87.93,270.12 168.03,364.38 72.65,89.05 147.17,133.39 222.8,133.39 42.11,0 77.88,-16.77 106.93,-50.3 29.07,-33.54 43.61,-81.59 43.61,-144.2 0,-87.18 -51.05,-193.36 -152.77,-318.55 -94.64,-112.16 -190.02,-223.55 -286.14,-333.83 -101.72,-138.61 -152.77,-268.64 -152.77,-390.85 0,-109.18 39.88,-198.96 119.97,-268.64 75.64,-65.57 171.02,-98.37 286.15,-98.37 37.64,0 81.61,11.19 130.78,32.8 48.07,21.98 76.39,32.79 85.33,32.79 27.56,0 69.3,-28.31 124.43,-84.95l96.14 534.66 -78.62 15.28c-45.08,-136.75 -106.18,-251.12 -183.31,-342.78 -68.55,-80.12 -125.19,-119.98 -170.28,-119.98 -78.61,0 -118.1,50.3 -118.1,150.53 0,64.09 51.03,155 152.75,273.1 168.78,197.84 263.42,311.48 283.92,340.54 102.08,143.82 152.75,279.44 152.75,406.12z"/>
   <path class="fil1" d="M15635.08 6713.03l0 24.95c5.21,0.34 1.86,6.34 2.72,9.44 0.4,1.43 0.87,1.32 2.19,2.14 0.15,1.91 -0.06,3.79 -0.03,5.66 0.09,4.72 1.98,0.95 2.48,4.3 0.19,1.22 -0.44,1.66 0.16,2.91 0.97,2.05 0.64,-0.09 1.88,1.68 0.85,1.22 0.23,4.3 0.32,5.88 3.14,1.41 2.17,0.39 2.43,3.78l2.54 0.76c0.07,1.32 -0.3,2.95 0.18,3.96 0.82,1.7 1.47,0.74 2.16,2.68 1.29,3.68 2.26,0.63 2.32,6.69 4.17,2.11 1.15,0.89 2.8,3.43 1.51,2.32 1.66,-0.67 2.07,4.11l2.53 0.65c0.03,4.86 1.77,2.53 4.18,5.5 0.9,1.1 0.54,2.1 1.67,3.11 1.21,1.09 1.12,1.6 1.42,3.26 1.68,0.87 1.73,0.93 2.2,2.19 0.05,0.12 0.05,0.24 0.1,0.37l0.5 0.97c0.93,1.23 2.73,2.04 4.35,2.78 0.01,5.21 3.35,3.12 4.66,6.34l2.39 3.08c3.46,2.49 0.97,0.69 2.76,3.55 1.32,2.1 2.91,0.93 4.45,4.89l0.5 0.95c1.37,1.62 5.47,3.43 6.31,5.25 1.47,3.17 -1.18,0.61 5.74,5.58 3.23,2.32 0.75,0.65 2.07,3.2 0.52,1 -0.13,0.07 0.66,0.81l5.98 4.19c1.58,1.01 2.29,1.56 2.78,3.01 0.82,2.46 3.68,3.61 6.11,5.43l6.64 4.97c3.48,2.66 -1.36,2.09 12.07,10.86 0.99,0.65 2.13,1.75 3.01,2.47 4.03,3.26 9.74,6.6 13.37,9.83 1.27,1.13 2.14,1.79 3.38,2.69l59.9 44.93c1.35,0.47 2.53,0.35 3.75,1.2l7.59 5.55c1.02,0.78 2.39,1.67 3.56,2.5 1.05,0.75 2.04,1.51 3.12,2.46 1.82,1.59 4.58,4.03 6.99,4.58 0.77,0.17 0.47,-0.01 1.43,0.26 4.62,1.34 11.78,9.62 16.27,11.67 4.42,2.01 -0.34,-2.01 7.8,4.07l10.06 7.57c1.93,1.49 1.41,1.48 5.05,1.45 1.93,2.46 4.83,4.09 7.6,5.97 0.04,0.02 0.63,0.47 0.84,0.63 3.1,2.31 3.74,4.19 8.51,4.23 1.87,2.56 5.01,4.11 8.24,6.57 10.85,8.26 4.53,1.23 10.16,5.8 1.99,1.62 7.31,5.96 8.85,6.77 2.44,1.31 3.08,0.15 5.02,1.84 1.64,1.43 4.12,2.19 4.47,4.31l2.59 0 -0.26 -3.02c2.37,-1.05 1.96,0.16 4.14,-0.92 4.66,-2.3 7.45,-7.51 13.22,-8.68 2.74,-0.56 5.11,-3.51 7.12,-5.03l5.62 -4c5.44,-3.95 2.48,0.11 6.71,-3.19 1.12,-0.87 1.54,-1.15 2.71,-1.88l5.64 -4.38c6.79,-5.33 2.13,-2.34 6.22,-3.42 1.29,-0.34 1.01,-0.32 1.88,-0.91 0.5,-0.34 0.9,-0.69 1.43,-1.11 1.35,-1.05 12.29,-9.52 13.8,-9.97 2.99,-0.88 1.2,0.65 4.04,-1.3l13.34 -10.3c2.05,-1.68 0.32,-0.81 3.63,-1.49 2.27,-0.47 3.72,-2.17 6.2,-4.13l13.75 -9.95c3.13,-0.88 0.95,0.76 4,-1.37l35.65 -26.91c2.29,-1.68 1.32,-0.09 4.11,-1.16 0.97,-0.38 9.42,-6.94 11.09,-8.18l19.3 -14.49c2.05,-1.6 1.36,-0.65 1.48,-3.46 5.27,-2.25 14.28,-10.69 19.36,-13.83 1.29,-0.8 1.95,-1.3 3.21,-2.27 2.31,-1.76 1.72,-0.16 1.73,-3.55 2.68,-1.03 3.27,-2.13 7.06,-5.03 12.26,-9.35 4.15,-5.33 9.18,-8.67 1.31,-0.87 2.07,-1.61 3.36,-2.69 0.66,-0.57 3.05,-2 3.54,-2.52 2.37,-2.53 -1.92,-0.41 3.13,-4.15 6.06,-4.48 3.67,-2.84 4.97,-5.47 0.73,-1.48 5.52,-3.4 6.69,-5.25 1.57,-2.5 -1.14,-0.95 2.37,-3.41 3.18,-2.21 2.24,-1.62 2.79,-3.2 0.7,-2.04 0.86,-1.42 2.9,-2.89 1.91,-1.38 1.7,-1.13 1.86,-3.8 3.68,-0.89 0.17,-0.36 5.15,-2.6 0,-0.33 -0.03,-1.36 0.05,-1.61 0.58,-1.87 -0.86,1.09 0.31,-0.68 0.77,-1.18 1.25,-0.3 1.9,-2 0.39,-1.02 -0.29,-0.5 0.52,-1.81 0.3,-0.47 2.19,-1.67 2.92,-2.18 2.04,-1.42 1.37,-0.67 1.42,-3.33 0.86,-0.34 1.77,-0.59 2.61,-0.98 -0.07,-4.77 0.5,-1.57 1.99,-3.67 0.77,-1.09 -0.03,-0.83 0.63,-2.08 1,-1.88 -0.13,-0.42 2.05,-1.38 0.05,-1.35 -0.27,-1.64 0.5,-2.78l1.28 -1.34c1.23,-1.97 -1.07,-0.19 1.77,-2.93 1.04,-1.01 0.95,-0.73 1.03,-2.9 3.92,-1.93 1.89,1.11 2.62,-5.18l2.56 -1.08 0.04 -2.98 2.29 -0.62c0.13,-1.45 -0.35,-3.06 0.33,-4.26 1.35,-2.39 1.68,0.75 1.81,-3.61 0.1,-3.48 0.42,-1.4 2.09,-3.07 1.04,-1.04 0.42,-2.77 0.53,-4.43 2.37,-0.91 2.45,-0.56 2.44,-3.26 0,-1.52 -0.55,-4.21 0.25,-5.46 1.22,-1.9 2.04,0.25 2.04,-3.62 0,-1.91 -0.16,-3.83 -0.02,-5.74l2.37 -0.2 0 -30.87 -2.41 -0.38 -0.05 -8.16c-4.4,-2.15 -1.68,-0.81 -2.52,-4.38 -0.74,-3.18 -1.8,0.59 -2.08,-4.78 -0.14,-2.72 0.08,-0.88 -1.42,-2.31 -0.73,-0.69 -0.45,-0.19 -0.84,-1.2 -2.04,-5.18 -2.56,-0.07 -2.49,-5.41l-2.59 -0.98c-0.13,-4.19 -0.17,-1.71 -1.75,-3.51 -1.43,-1.63 0.33,-1.69 -1.93,-3.31 -12.26,-8.78 -2.2,-3.36 -8.1,-7.75l-8.99 -6.63c-3.75,-3.01 -7.62,-5.67 -12.09,-9.12 -7.93,-6.12 -4.73,-1.44 -8.27,-4.17 -4.61,-3.56 -1.64,-2.51 -6.77,-2.92 -0.44,-0.76 -1.85,-2.18 -2.97,-2.78 -2.45,-1.32 -1.76,0.14 -4.42,-1.44 -3.27,-1.94 -2.2,-0.22 -4.47,-1.4 -2.28,-1.19 0.82,-1.27 -4.91,-1.35l-1.11 -1.69 -3.51 -0.04 -1.22 -1.79c-10.5,-0.08 -3.44,-0.59 -8.58,-1.88 -4.75,-1.19 -2.77,-1.45 -4,-1.81 -2.57,-0.08 -6.59,0.51 -8.24,-0.61 -1.36,-0.93 1.28,-1.07 -3.28,-1.23 -1.78,-0.07 -1.92,0.42 -3.42,-0.28 -1.58,-0.73 0.32,-1.01 -2.9,-1.4 -2.04,-0.24 -9.23,0.55 -12.29,-0.42l-0.2 -1.57 -54.72 0 -0.33 1.56c-3.4,1.17 -8.98,-0.24 -12.68,0.5 -3.87,0.78 0.38,1.57 -4.57,1.69 -2.25,0.05 -4.3,-0.44 -6.06,0.33 -3.25,1.43 0.97,1.08 -4.97,1.4 -3.42,0.18 -2.06,0.81 -3.91,1.48 -0.12,0.04 -0.27,0.08 -0.4,0.11l-2.71 0.64c-2.58,1.32 1.41,1.43 -7.29,1.49l-1.25 1.78c-6.25,-0.06 -2.27,0.75 -5.52,1.62 -3.38,0.9 -1.79,-0.45 -4.77,1.75 -3.45,2.55 -2.72,1.16 -4.85,2.08 -0.56,0.24 -1.17,0.88 -1.65,1.24 -7.01,5.36 -0.19,-1.84 -10.31,5.69l-21.47 16.3c-7.34,4.83 -5.21,3.39 -6.42,6.02 -0.72,1.57 -0.19,0.54 -3.3,2.74 -2.13,1.5 -1.06,1.24 -3.81,2.32l0 2.65c-2.66,1.02 -3.96,1.9 -4.75,4.13 -0.65,1.85 -0.37,2.1 -4.98,4.06l0.04 2.69c-5.01,1.56 -0.15,2.04 -5.51,2.14 -1.52,-0.3 -1.12,-1.65 -1.62,-2.62l-1.55 -1.31c-0.09,-0.06 -0.23,-0.14 -0.32,-0.2 -0.44,-0.3 -2.2,-1.49 -2.36,-1.68 -0.84,-1 -0.48,-1.09 -0.58,-2.63l-4.16 -2.45c-1.76,-1.89 0.45,-1.42 -2.21,-3.57 -5.79,-4.68 -5.19,-2.84 -5.43,-6.74 -2.91,-0.52 -7.13,-4.6 -9.49,-6.29 -6.74,-4.81 0.04,-1.79 -4.57,-5.23l-8.91 -6.36c-3.18,-0.95 -1.46,0.8 -3.93,-1.25 -12.76,-10.57 -6.73,-3.38 -12.78,-7.8 -6.01,-4.38 -2.76,-0.55 -6.84,-3.48 -1.44,-1.03 -1.2,-0.78 -2.17,-2.42l-3.84 -0.02c-1.62,-2.78 -1,-1.1 -4.08,-2.01l-0.81 -0.33c-5.14,-2.45 1.54,-0.01 -3.86,-1.35 -1.91,-0.47 -1.19,-0.44 -2.51,-1.61 -7.01,-0.21 -4.05,0.44 -6.31,-0.96 -2.45,-1.52 -2.68,-0.62 -6.39,-0.85l-1.62 -1.95 -7.93 0 -1.3 -1.68c-8.98,-0.36 -12.89,1.18 -13.97,-1.62l-54.93 0 -0.33 1.56c-2.85,0.98 -7.51,0.17 -9.81,0.45 -3.07,0.37 0,-0.13 -2.21,0.68 -4.88,1.79 -8.23,-1.17 -10.06,2.39l-6.19 0.03c-1.91,2.96 -0.77,1.67 -5.16,1.95 -4.52,0.28 -0.43,1.43 -5.21,1.76 -6.43,0.45 -1.72,0.07 -5.48,1.43 -3.38,1.22 -2.82,-0.82 -4.54,2.1l-3.91 0.03 -0.75 1.71 -3.95 0.06 -2.79 3.12c-1.77,1.25 -0.09,0.34 -2.29,0.77 -4.31,0.85 -1.13,0.98 -4.63,1.75 -2.9,0.64 -2.01,0.2 -5.97,3.39 -6.08,4.89 -1.79,-0.63 -8.14,4.23l-20.8 15.54c-2.85,2.24 -0.22,1.7 -2.34,3.5 -0.58,0.51 -0.57,0.24 -1.75,1.18 -0.11,0.09 -0.42,0.37 -0.53,0.46 -3.39,2.74 -0.78,4.49 -6.75,5.95l-0.13 3.21 -2.27 0.68 -0.02 2.83c-3.67,1.23 -2.3,1.56 -2.3,5.22 -2.86,1.34 -1.69,0.25 -2.41,2.36 -1.08,3.19 0.19,0.55 -2.34,2.56 -0.14,1.57 0.14,3.39 -0.01,4.79 -0.31,2.77 -1.64,1.37 -2.13,2.99 -0.87,2.85 2.45,7.7 -2.62,7.99z"/>
  </g>
  <g style="clip-path:url(#id0)">
  </g>
  <g style="clip-path:url(#id1)">
   <image x="708.45" y="11631.43" width="7328.05" height="10868.56" xlink:href="tere_Images/tere_ImgID1.png"/>
  </g>
  <g style="clip-path:url(#id2)">
  </g>
  <g style="clip-path:url(#id3)">
  </g>
  <g style="clip-path:url(#id4)">
   <image x="24880.38" y="1000.01" width="7328.05" height="10868.56" xlink:href="tere_Images/tere_ImgID2.png"/>
  </g>
  <g style="clip-path:url(#id5)">
  </g>
 </g>
</svg>
